<?xml version="1.0" encoding="utf-8" standalone="no"?>
<!DOCTYPE svg PUBLIC "-//W3C//DTD SVG 1.1//EN"
  "http://www.w3.org/Graphics/SVG/1.1/DTD/svg11.dtd">
<svg xmlns:xlink="http://www.w3.org/1999/xlink" width="1008pt" height="720pt" viewBox="0 0 1008 720" xmlns="http://www.w3.org/2000/svg" version="1.1">
 <metadata>
  <rdf:RDF xmlns:dc="http://purl.org/dc/elements/1.1/" xmlns:cc="http://creativecommons.org/ns#" xmlns:rdf="http://www.w3.org/1999/02/22-rdf-syntax-ns#">
   <cc:Work>
    <dc:type rdf:resource="http://purl.org/dc/dcmitype/StillImage"/>
    <dc:date>2026-03-10T19:39:29.982660</dc:date>
    <dc:format>image/svg+xml</dc:format>
    <dc:creator>
     <cc:Agent>
      <dc:title>Matplotlib v3.10.8, https://matplotlib.org/</dc:title>
     </cc:Agent>
    </dc:creator>
   </cc:Work>
  </rdf:RDF>
 </metadata>
 <defs>
  <style type="text/css">*{stroke-linejoin: round; stroke-linecap: butt}</style>
 </defs>
 <g id="figure_1">
  <g id="patch_1">
   <path d="M 0 720 
L 1008 720 
L 1008 0 
L 0 0 
z
" style="fill: #ffffff"/>
  </g>
  <g id="axes_1">
   <g id="patch_2">
    <path d="M 47.72 333.88 
L 997.2 333.88 
L 997.2 47.76 
L 47.72 47.76 
z
" style="fill: #ffffff"/>
   </g>
   <g id="patch_3">
    <path d="M 47.72 333.88 
L 53.439759 333.88 
L 53.439759 333.88 
L 47.72 333.88 
z
" clip-path="url(#pda0bfce13a)" style="fill: #1f77b4"/>
   </g>
   <g id="patch_4">
    <path d="M 53.439759 333.88 
L 59.159518 333.88 
L 59.159518 333.879816 
L 53.439759 333.879816 
z
" clip-path="url(#pda0bfce13a)" style="fill: #1f77b4"/>
   </g>
   <g id="patch_5">
    <path d="M 59.159518 333.88 
L 64.879277 333.88 
L 64.879277 333.434645 
L 59.159518 333.434645 
z
" clip-path="url(#pda0bfce13a)" style="fill: #1f77b4"/>
   </g>
   <g id="patch_6">
    <path d="M 64.879277 333.88 
L 70.599036 333.88 
L 70.599036 333.875469 
L 64.879277 333.875469 
z
" clip-path="url(#pda0bfce13a)" style="fill: #1f77b4"/>
   </g>
   <g id="patch_7">
    <path d="M 70.599036 333.88 
L 76.318795 333.88 
L 76.318795 333.870885 
L 70.599036 333.870885 
z
" clip-path="url(#pda0bfce13a)" style="fill: #1f77b4"/>
   </g>
   <g id="patch_8">
    <path d="M 76.318795 333.88 
L 82.038554 333.88 
L 82.038554 333.859562 
L 76.318795 333.859562 
z
" clip-path="url(#pda0bfce13a)" style="fill: #1f77b4"/>
   </g>
   <g id="patch_9">
    <path d="M 82.038554 333.88 
L 87.758313 333.88 
L 87.758313 333.859469 
L 82.038554 333.859469 
z
" clip-path="url(#pda0bfce13a)" style="fill: #1f77b4"/>
   </g>
   <g id="patch_10">
    <path d="M 87.758313 333.88 
L 93.478072 333.88 
L 93.478072 329.264157 
L 87.758313 329.264157 
z
" clip-path="url(#pda0bfce13a)" style="fill: #1f77b4"/>
   </g>
   <g id="patch_11">
    <path d="M 93.478072 333.88 
L 99.197831 333.88 
L 99.197831 333.85972 
L 93.478072 333.85972 
z
" clip-path="url(#pda0bfce13a)" style="fill: #1f77b4"/>
   </g>
   <g id="patch_12">
    <path d="M 99.197831 333.88 
L 104.91759 333.88 
L 104.91759 333.87254 
L 99.197831 333.87254 
z
" clip-path="url(#pda0bfce13a)" style="fill: #1f77b4"/>
   </g>
   <g id="patch_13">
    <path d="M 104.91759 333.88 
L 110.637349 333.88 
L 110.637349 324.21206 
L 104.91759 324.21206 
z
" clip-path="url(#pda0bfce13a)" style="fill: #1f77b4"/>
   </g>
   <g id="patch_14">
    <path d="M 110.637349 333.88 
L 116.357108 333.88 
L 116.357108 333.862291 
L 110.637349 333.862291 
z
" clip-path="url(#pda0bfce13a)" style="fill: #1f77b4"/>
   </g>
   <g id="patch_15">
    <path d="M 116.357108 333.88 
L 122.076867 333.88 
L 122.076867 331.986674 
L 116.357108 331.986674 
z
" clip-path="url(#pda0bfce13a)" style="fill: #1f77b4"/>
   </g>
   <g id="patch_16">
    <path d="M 122.076867 333.88 
L 127.796627 333.88 
L 127.796627 333.366505 
L 122.076867 333.366505 
z
" clip-path="url(#pda0bfce13a)" style="fill: #1f77b4"/>
   </g>
   <g id="patch_17">
    <path d="M 127.796627 333.88 
L 133.516386 333.88 
L 133.516386 332.909045 
L 127.796627 332.909045 
z
" clip-path="url(#pda0bfce13a)" style="fill: #1f77b4"/>
   </g>
   <g id="patch_18">
    <path d="M 133.516386 333.88 
L 139.236145 333.88 
L 139.236145 332.477171 
L 133.516386 332.477171 
z
" clip-path="url(#pda0bfce13a)" style="fill: #1f77b4"/>
   </g>
   <g id="patch_19">
    <path d="M 139.236145 333.88 
L 144.955904 333.88 
L 144.955904 329.069952 
L 139.236145 329.069952 
z
" clip-path="url(#pda0bfce13a)" style="fill: #1f77b4"/>
   </g>
   <g id="patch_20">
    <path d="M 144.955904 333.88 
L 150.675663 333.88 
L 150.675663 331.362046 
L 144.955904 331.362046 
z
" clip-path="url(#pda0bfce13a)" style="fill: #1f77b4"/>
   </g>
   <g id="patch_21">
    <path d="M 150.675663 333.88 
L 156.395422 333.88 
L 156.395422 321.76309 
L 150.675663 321.76309 
z
" clip-path="url(#pda0bfce13a)" style="fill: #1f77b4"/>
   </g>
   <g id="patch_22">
    <path d="M 156.395422 333.88 
L 162.115181 333.88 
L 162.115181 329.933247 
L 156.395422 329.933247 
z
" clip-path="url(#pda0bfce13a)" style="fill: #1f77b4"/>
   </g>
   <g id="patch_23">
    <path d="M 162.115181 333.88 
L 167.83494 333.88 
L 167.83494 332.002896 
L 162.115181 332.002896 
z
" clip-path="url(#pda0bfce13a)" style="fill: #1f77b4"/>
   </g>
   <g id="patch_24">
    <path d="M 167.83494 333.88 
L 173.554699 333.88 
L 173.554699 317.841261 
L 167.83494 317.841261 
z
" clip-path="url(#pda0bfce13a)" style="fill: #1f77b4"/>
   </g>
   <g id="patch_25">
    <path d="M 173.554699 333.88 
L 179.274458 333.88 
L 179.274458 320.845031 
L 173.554699 320.845031 
z
" clip-path="url(#pda0bfce13a)" style="fill: #1f77b4"/>
   </g>
   <g id="patch_26">
    <path d="M 179.274458 333.88 
L 184.994217 333.88 
L 184.994217 318.277529 
L 179.274458 318.277529 
z
" clip-path="url(#pda0bfce13a)" style="fill: #1f77b4"/>
   </g>
   <g id="patch_27">
    <path d="M 184.994217 333.88 
L 190.713976 333.88 
L 190.713976 317.124164 
L 184.994217 317.124164 
z
" clip-path="url(#pda0bfce13a)" style="fill: #1f77b4"/>
   </g>
   <g id="patch_28">
    <path d="M 190.713976 333.88 
L 196.433735 333.88 
L 196.433735 328.878733 
L 190.713976 328.878733 
z
" clip-path="url(#pda0bfce13a)" style="fill: #1f77b4"/>
   </g>
   <g id="patch_29">
    <path d="M 196.433735 333.88 
L 202.153494 333.88 
L 202.153494 330.615242 
L 196.433735 330.615242 
z
" clip-path="url(#pda0bfce13a)" style="fill: #1f77b4"/>
   </g>
   <g id="patch_30">
    <path d="M 202.153494 333.88 
L 207.873253 333.88 
L 207.873253 328.10136 
L 202.153494 328.10136 
z
" clip-path="url(#pda0bfce13a)" style="fill: #1f77b4"/>
   </g>
   <g id="patch_31">
    <path d="M 207.873253 333.88 
L 213.593012 333.88 
L 213.593012 328.547069 
L 207.873253 328.547069 
z
" clip-path="url(#pda0bfce13a)" style="fill: #1f77b4"/>
   </g>
   <g id="patch_32">
    <path d="M 213.593012 333.88 
L 219.312771 333.88 
L 219.312771 328.590022 
L 213.593012 328.590022 
z
" clip-path="url(#pda0bfce13a)" style="fill: #1f77b4"/>
   </g>
   <g id="patch_33">
    <path d="M 219.312771 333.88 
L 225.03253 333.88 
L 225.03253 332.505683 
L 219.312771 332.505683 
z
" clip-path="url(#pda0bfce13a)" style="fill: #1f77b4"/>
   </g>
   <g id="patch_34">
    <path d="M 225.03253 333.88 
L 230.752289 333.88 
L 230.752289 312.082323 
L 225.03253 312.082323 
z
" clip-path="url(#pda0bfce13a)" style="fill: #1f77b4"/>
   </g>
   <g id="patch_35">
    <path d="M 230.752289 333.88 
L 236.472048 333.88 
L 236.472048 310.57773 
L 230.752289 310.57773 
z
" clip-path="url(#pda0bfce13a)" style="fill: #1f77b4"/>
   </g>
   <g id="patch_36">
    <path d="M 236.472048 333.88 
L 242.191807 333.88 
L 242.191807 322.086008 
L 236.472048 322.086008 
z
" clip-path="url(#pda0bfce13a)" style="fill: #1f77b4"/>
   </g>
   <g id="patch_37">
    <path d="M 242.191807 333.88 
L 247.911566 333.88 
L 247.911566 333.876079 
L 242.191807 333.876079 
z
" clip-path="url(#pda0bfce13a)" style="fill: #1f77b4"/>
   </g>
   <g id="patch_38">
    <path d="M 247.911566 333.88 
L 253.631325 333.88 
L 253.631325 294.311436 
L 247.911566 294.311436 
z
" clip-path="url(#pda0bfce13a)" style="fill: #1f77b4"/>
   </g>
   <g id="patch_39">
    <path d="M 253.631325 333.88 
L 259.351084 333.88 
L 259.351084 316.178247 
L 253.631325 316.178247 
z
" clip-path="url(#pda0bfce13a)" style="fill: #1f77b4"/>
   </g>
   <g id="patch_40">
    <path d="M 259.351084 333.88 
L 265.070843 333.88 
L 265.070843 276.9786 
L 259.351084 276.9786 
z
" clip-path="url(#pda0bfce13a)" style="fill: #1f77b4"/>
   </g>
   <g id="patch_41">
    <path d="M 265.070843 333.88 
L 270.790602 333.88 
L 270.790602 331.066078 
L 265.070843 331.066078 
z
" clip-path="url(#pda0bfce13a)" style="fill: #1f77b4"/>
   </g>
   <g id="patch_42">
    <path d="M 270.790602 333.88 
L 276.510361 333.88 
L 276.510361 328.951146 
L 270.790602 328.951146 
z
" clip-path="url(#pda0bfce13a)" style="fill: #1f77b4"/>
   </g>
   <g id="patch_43">
    <path d="M 276.510361 333.88 
L 282.23012 333.88 
L 282.23012 319.587137 
L 276.510361 319.587137 
z
" clip-path="url(#pda0bfce13a)" style="fill: #1f77b4"/>
   </g>
   <g id="patch_44">
    <path d="M 282.23012 333.88 
L 287.94988 333.88 
L 287.94988 277.42313 
L 282.23012 277.42313 
z
" clip-path="url(#pda0bfce13a)" style="fill: #1f77b4"/>
   </g>
   <g id="patch_45">
    <path d="M 287.94988 333.88 
L 293.669639 333.88 
L 293.669639 307.78203 
L 287.94988 307.78203 
z
" clip-path="url(#pda0bfce13a)" style="fill: #1f77b4"/>
   </g>
   <g id="patch_46">
    <path d="M 293.669639 333.88 
L 299.389398 333.88 
L 299.389398 330.815784 
L 293.669639 330.815784 
z
" clip-path="url(#pda0bfce13a)" style="fill: #1f77b4"/>
   </g>
   <g id="patch_47">
    <path d="M 299.389398 333.88 
L 305.109157 333.88 
L 305.109157 322.358076 
L 299.389398 322.358076 
z
" clip-path="url(#pda0bfce13a)" style="fill: #1f77b4"/>
   </g>
   <g id="patch_48">
    <path d="M 305.109157 333.88 
L 310.828916 333.88 
L 310.828916 315.042999 
L 305.109157 315.042999 
z
" clip-path="url(#pda0bfce13a)" style="fill: #1f77b4"/>
   </g>
   <g id="patch_49">
    <path d="M 310.828916 333.88 
L 316.548675 333.88 
L 316.548675 301.007873 
L 310.828916 301.007873 
z
" clip-path="url(#pda0bfce13a)" style="fill: #1f77b4"/>
   </g>
   <g id="patch_50">
    <path d="M 316.548675 333.88 
L 322.268434 333.88 
L 322.268434 327.40271 
L 316.548675 327.40271 
z
" clip-path="url(#pda0bfce13a)" style="fill: #1f77b4"/>
   </g>
   <g id="patch_51">
    <path d="M 322.268434 333.88 
L 327.988193 333.88 
L 327.988193 316.194028 
L 322.268434 316.194028 
z
" clip-path="url(#pda0bfce13a)" style="fill: #1f77b4"/>
   </g>
   <g id="patch_52">
    <path d="M 327.988193 333.88 
L 333.707952 333.88 
L 333.707952 310.707874 
L 327.988193 310.707874 
z
" clip-path="url(#pda0bfce13a)" style="fill: #1f77b4"/>
   </g>
   <g id="patch_53">
    <path d="M 333.707952 333.88 
L 339.427711 333.88 
L 339.427711 303.979324 
L 333.707952 303.979324 
z
" clip-path="url(#pda0bfce13a)" style="fill: #1f77b4"/>
   </g>
   <g id="patch_54">
    <path d="M 339.427711 333.88 
L 345.14747 333.88 
L 345.14747 284.350155 
L 339.427711 284.350155 
z
" clip-path="url(#pda0bfce13a)" style="fill: #1f77b4"/>
   </g>
   <g id="patch_55">
    <path d="M 345.14747 333.88 
L 350.867229 333.88 
L 350.867229 307.427523 
L 345.14747 307.427523 
z
" clip-path="url(#pda0bfce13a)" style="fill: #1f77b4"/>
   </g>
   <g id="patch_56">
    <path d="M 350.867229 333.88 
L 356.586988 333.88 
L 356.586988 309.95036 
L 350.867229 309.95036 
z
" clip-path="url(#pda0bfce13a)" style="fill: #1f77b4"/>
   </g>
   <g id="patch_57">
    <path d="M 356.586988 333.88 
L 362.306747 333.88 
L 362.306747 304.25135 
L 356.586988 304.25135 
z
" clip-path="url(#pda0bfce13a)" style="fill: #1f77b4"/>
   </g>
   <g id="patch_58">
    <path d="M 362.306747 333.88 
L 368.026506 333.88 
L 368.026506 324.065821 
L 362.306747 324.065821 
z
" clip-path="url(#pda0bfce13a)" style="fill: #1f77b4"/>
   </g>
   <g id="patch_59">
    <path d="M 368.026506 333.88 
L 373.746265 333.88 
L 373.746265 271.821012 
L 368.026506 271.821012 
z
" clip-path="url(#pda0bfce13a)" style="fill: #1f77b4"/>
   </g>
   <g id="patch_60">
    <path d="M 373.746265 333.88 
L 379.466024 333.88 
L 379.466024 303.245936 
L 373.746265 303.245936 
z
" clip-path="url(#pda0bfce13a)" style="fill: #1f77b4"/>
   </g>
   <g id="patch_61">
    <path d="M 379.466024 333.88 
L 385.185783 333.88 
L 385.185783 300.886205 
L 379.466024 300.886205 
z
" clip-path="url(#pda0bfce13a)" style="fill: #1f77b4"/>
   </g>
   <g id="patch_62">
    <path d="M 385.185783 333.88 
L 390.905542 333.88 
L 390.905542 304.143747 
L 385.185783 304.143747 
z
" clip-path="url(#pda0bfce13a)" style="fill: #1f77b4"/>
   </g>
   <g id="patch_63">
    <path d="M 390.905542 333.88 
L 396.625301 333.88 
L 396.625301 302.289165 
L 390.905542 302.289165 
z
" clip-path="url(#pda0bfce13a)" style="fill: #1f77b4"/>
   </g>
   <g id="patch_64">
    <path d="M 396.625301 333.88 
L 402.34506 333.88 
L 402.34506 236.174824 
L 396.625301 236.174824 
z
" clip-path="url(#pda0bfce13a)" style="fill: #1f77b4"/>
   </g>
   <g id="patch_65">
    <path d="M 402.34506 333.88 
L 408.064819 333.88 
L 408.064819 323.657228 
L 402.34506 323.657228 
z
" clip-path="url(#pda0bfce13a)" style="fill: #1f77b4"/>
   </g>
   <g id="patch_66">
    <path d="M 408.064819 333.88 
L 413.784578 333.88 
L 413.784578 297.845778 
L 408.064819 297.845778 
z
" clip-path="url(#pda0bfce13a)" style="fill: #1f77b4"/>
   </g>
   <g id="patch_67">
    <path d="M 413.784578 333.88 
L 419.504337 333.88 
L 419.504337 203.681674 
L 413.784578 203.681674 
z
" clip-path="url(#pda0bfce13a)" style="fill: #1f77b4"/>
   </g>
   <g id="patch_68">
    <path d="M 419.504337 333.88 
L 425.224096 333.88 
L 425.224096 272.359592 
L 419.504337 272.359592 
z
" clip-path="url(#pda0bfce13a)" style="fill: #1f77b4"/>
   </g>
   <g id="patch_69">
    <path d="M 425.224096 333.88 
L 430.943855 333.88 
L 430.943855 299.723611 
L 425.224096 299.723611 
z
" clip-path="url(#pda0bfce13a)" style="fill: #1f77b4"/>
   </g>
   <g id="patch_70">
    <path d="M 430.943855 333.88 
L 436.663614 333.88 
L 436.663614 330.757276 
L 430.943855 330.757276 
z
" clip-path="url(#pda0bfce13a)" style="fill: #1f77b4"/>
   </g>
   <g id="patch_71">
    <path d="M 436.663614 333.88 
L 442.383373 333.88 
L 442.383373 301.705382 
L 436.663614 301.705382 
z
" clip-path="url(#pda0bfce13a)" style="fill: #1f77b4"/>
   </g>
   <g id="patch_72">
    <path d="M 442.383373 333.88 
L 448.103133 333.88 
L 448.103133 316.794351 
L 442.383373 316.794351 
z
" clip-path="url(#pda0bfce13a)" style="fill: #1f77b4"/>
   </g>
   <g id="patch_73">
    <path d="M 448.103133 333.88 
L 453.822892 333.88 
L 453.822892 311.496608 
L 448.103133 311.496608 
z
" clip-path="url(#pda0bfce13a)" style="fill: #1f77b4"/>
   </g>
   <g id="patch_74">
    <path d="M 453.822892 333.88 
L 459.542651 333.88 
L 459.542651 281.479117 
L 453.822892 281.479117 
z
" clip-path="url(#pda0bfce13a)" style="fill: #1f77b4"/>
   </g>
   <g id="patch_75">
    <path d="M 459.542651 333.88 
L 465.26241 333.88 
L 465.26241 301.94281 
L 459.542651 301.94281 
z
" clip-path="url(#pda0bfce13a)" style="fill: #1f77b4"/>
   </g>
   <g id="patch_76">
    <path d="M 465.26241 333.88 
L 470.982169 333.88 
L 470.982169 270.477079 
L 465.26241 270.477079 
z
" clip-path="url(#pda0bfce13a)" style="fill: #1f77b4"/>
   </g>
   <g id="patch_77">
    <path d="M 470.982169 333.88 
L 476.701928 333.88 
L 476.701928 210.439681 
L 470.982169 210.439681 
z
" clip-path="url(#pda0bfce13a)" style="fill: #1f77b4"/>
   </g>
   <g id="patch_78">
    <path d="M 476.701928 333.88 
L 482.421687 333.88 
L 482.421687 302.42074 
L 476.701928 302.42074 
z
" clip-path="url(#pda0bfce13a)" style="fill: #1f77b4"/>
   </g>
   <g id="patch_79">
    <path d="M 482.421687 333.88 
L 488.141446 333.88 
L 488.141446 234.454836 
L 482.421687 234.454836 
z
" clip-path="url(#pda0bfce13a)" style="fill: #1f77b4"/>
   </g>
   <g id="patch_80">
    <path d="M 488.141446 333.88 
L 493.861205 333.88 
L 493.861205 224.856818 
L 488.141446 224.856818 
z
" clip-path="url(#pda0bfce13a)" style="fill: #1f77b4"/>
   </g>
   <g id="patch_81">
    <path d="M 493.861205 333.88 
L 499.580964 333.88 
L 499.580964 217.252777 
L 493.861205 217.252777 
z
" clip-path="url(#pda0bfce13a)" style="fill: #1f77b4"/>
   </g>
   <g id="patch_82">
    <path d="M 499.580964 333.88 
L 505.300723 333.88 
L 505.300723 215.306861 
L 499.580964 215.306861 
z
" clip-path="url(#pda0bfce13a)" style="fill: #1f77b4"/>
   </g>
   <g id="patch_83">
    <path d="M 505.300723 333.88 
L 511.020482 333.88 
L 511.020482 261.7189 
L 505.300723 261.7189 
z
" clip-path="url(#pda0bfce13a)" style="fill: #1f77b4"/>
   </g>
   <g id="patch_84">
    <path d="M 511.020482 333.88 
L 516.740241 333.88 
L 516.740241 270.671002 
L 511.020482 270.671002 
z
" clip-path="url(#pda0bfce13a)" style="fill: #1f77b4"/>
   </g>
   <g id="patch_85">
    <path d="M 516.740241 333.88 
L 522.46 333.88 
L 522.46 192.124819 
L 516.740241 192.124819 
z
" clip-path="url(#pda0bfce13a)" style="fill: #1f77b4"/>
   </g>
   <g id="patch_86">
    <path d="M 522.46 333.88 
L 528.179759 333.88 
L 528.179759 298.358097 
L 522.46 298.358097 
z
" clip-path="url(#pda0bfce13a)" style="fill: #1f77b4"/>
   </g>
   <g id="patch_87">
    <path d="M 528.179759 333.88 
L 533.899518 333.88 
L 533.899518 200.520999 
L 528.179759 200.520999 
z
" clip-path="url(#pda0bfce13a)" style="fill: #1f77b4"/>
   </g>
   <g id="patch_88">
    <path d="M 533.899518 333.88 
L 539.619277 333.88 
L 539.619277 226.325788 
L 533.899518 226.325788 
z
" clip-path="url(#pda0bfce13a)" style="fill: #1f77b4"/>
   </g>
   <g id="patch_89">
    <path d="M 539.619277 333.88 
L 545.339036 333.88 
L 545.339036 247.875639 
L 539.619277 247.875639 
z
" clip-path="url(#pda0bfce13a)" style="fill: #1f77b4"/>
   </g>
   <g id="patch_90">
    <path d="M 545.339036 333.88 
L 551.058795 333.88 
L 551.058795 251.570115 
L 545.339036 251.570115 
z
" clip-path="url(#pda0bfce13a)" style="fill: #1f77b4"/>
   </g>
   <g id="patch_91">
    <path d="M 551.058795 333.88 
L 556.778554 333.88 
L 556.778554 277.949513 
L 551.058795 277.949513 
z
" clip-path="url(#pda0bfce13a)" style="fill: #1f77b4"/>
   </g>
   <g id="patch_92">
    <path d="M 556.778554 333.88 
L 562.498313 333.88 
L 562.498313 223.355839 
L 556.778554 223.355839 
z
" clip-path="url(#pda0bfce13a)" style="fill: #1f77b4"/>
   </g>
   <g id="patch_93">
    <path d="M 562.498313 333.88 
L 568.218072 333.88 
L 568.218072 219.616738 
L 562.498313 219.616738 
z
" clip-path="url(#pda0bfce13a)" style="fill: #1f77b4"/>
   </g>
   <g id="patch_94">
    <path d="M 568.218072 333.88 
L 573.937831 333.88 
L 573.937831 197.913277 
L 568.218072 197.913277 
z
" clip-path="url(#pda0bfce13a)" style="fill: #1f77b4"/>
   </g>
   <g id="patch_95">
    <path d="M 573.937831 333.88 
L 579.65759 333.88 
L 579.65759 234.810705 
L 573.937831 234.810705 
z
" clip-path="url(#pda0bfce13a)" style="fill: #1f77b4"/>
   </g>
   <g id="patch_96">
    <path d="M 579.65759 333.88 
L 585.377349 333.88 
L 585.377349 246.29738 
L 579.65759 246.29738 
z
" clip-path="url(#pda0bfce13a)" style="fill: #1f77b4"/>
   </g>
   <g id="patch_97">
    <path d="M 585.377349 333.88 
L 591.097108 333.88 
L 591.097108 212.131275 
L 585.377349 212.131275 
z
" clip-path="url(#pda0bfce13a)" style="fill: #1f77b4"/>
   </g>
   <g id="patch_98">
    <path d="M 591.097108 333.88 
L 596.816867 333.88 
L 596.816867 180.644914 
L 591.097108 180.644914 
z
" clip-path="url(#pda0bfce13a)" style="fill: #1f77b4"/>
   </g>
   <g id="patch_99">
    <path d="M 596.816867 333.88 
L 602.536627 333.88 
L 602.536627 212.310579 
L 596.816867 212.310579 
z
" clip-path="url(#pda0bfce13a)" style="fill: #1f77b4"/>
   </g>
   <g id="patch_100">
    <path d="M 602.536627 333.88 
L 608.256386 333.88 
L 608.256386 201.785499 
L 602.536627 201.785499 
z
" clip-path="url(#pda0bfce13a)" style="fill: #1f77b4"/>
   </g>
   <g id="patch_101">
    <path d="M 608.256386 333.88 
L 613.976145 333.88 
L 613.976145 283.581902 
L 608.256386 283.581902 
z
" clip-path="url(#pda0bfce13a)" style="fill: #1f77b4"/>
   </g>
   <g id="patch_102">
    <path d="M 613.976145 333.88 
L 619.695904 333.88 
L 619.695904 175.497501 
L 613.976145 175.497501 
z
" clip-path="url(#pda0bfce13a)" style="fill: #1f77b4"/>
   </g>
   <g id="patch_103">
    <path d="M 619.695904 333.88 
L 625.415663 333.88 
L 625.415663 228.101951 
L 619.695904 228.101951 
z
" clip-path="url(#pda0bfce13a)" style="fill: #1f77b4"/>
   </g>
   <g id="patch_104">
    <path d="M 625.415663 333.88 
L 631.135422 333.88 
L 631.135422 274.901547 
L 625.415663 274.901547 
z
" clip-path="url(#pda0bfce13a)" style="fill: #1f77b4"/>
   </g>
   <g id="patch_105">
    <path d="M 631.135422 333.88 
L 636.855181 333.88 
L 636.855181 289.536863 
L 631.135422 289.536863 
z
" clip-path="url(#pda0bfce13a)" style="fill: #1f77b4"/>
   </g>
   <g id="patch_106">
    <path d="M 636.855181 333.88 
L 642.57494 333.88 
L 642.57494 236.461164 
L 636.855181 236.461164 
z
" clip-path="url(#pda0bfce13a)" style="fill: #1f77b4"/>
   </g>
   <g id="patch_107">
    <path d="M 642.57494 333.88 
L 648.294699 333.88 
L 648.294699 221.570256 
L 642.57494 221.570256 
z
" clip-path="url(#pda0bfce13a)" style="fill: #1f77b4"/>
   </g>
   <g id="patch_108">
    <path d="M 648.294699 333.88 
L 654.014458 333.88 
L 654.014458 234.602603 
L 648.294699 234.602603 
z
" clip-path="url(#pda0bfce13a)" style="fill: #1f77b4"/>
   </g>
   <g id="patch_109">
    <path d="M 654.014458 333.88 
L 659.734217 333.88 
L 659.734217 231.269057 
L 654.014458 231.269057 
z
" clip-path="url(#pda0bfce13a)" style="fill: #1f77b4"/>
   </g>
   <g id="patch_110">
    <path d="M 659.734217 333.88 
L 665.453976 333.88 
L 665.453976 236.243723 
L 659.734217 236.243723 
z
" clip-path="url(#pda0bfce13a)" style="fill: #1f77b4"/>
   </g>
   <g id="patch_111">
    <path d="M 665.453976 333.88 
L 671.173735 333.88 
L 671.173735 241.704821 
L 665.453976 241.704821 
z
" clip-path="url(#pda0bfce13a)" style="fill: #1f77b4"/>
   </g>
   <g id="patch_112">
    <path d="M 671.173735 333.88 
L 676.893494 333.88 
L 676.893494 181.737693 
L 671.173735 181.737693 
z
" clip-path="url(#pda0bfce13a)" style="fill: #1f77b4"/>
   </g>
   <g id="patch_113">
    <path d="M 676.893494 333.88 
L 682.613253 333.88 
L 682.613253 162.966956 
L 676.893494 162.966956 
z
" clip-path="url(#pda0bfce13a)" style="fill: #1f77b4"/>
   </g>
   <g id="patch_114">
    <path d="M 682.613253 333.88 
L 688.333012 333.88 
L 688.333012 226.123891 
L 682.613253 226.123891 
z
" clip-path="url(#pda0bfce13a)" style="fill: #1f77b4"/>
   </g>
   <g id="patch_115">
    <path d="M 688.333012 333.88 
L 694.052771 333.88 
L 694.052771 238.024582 
L 688.333012 238.024582 
z
" clip-path="url(#pda0bfce13a)" style="fill: #1f77b4"/>
   </g>
   <g id="patch_116">
    <path d="M 694.052771 333.88 
L 699.77253 333.88 
L 699.77253 264.468225 
L 694.052771 264.468225 
z
" clip-path="url(#pda0bfce13a)" style="fill: #1f77b4"/>
   </g>
   <g id="patch_117">
    <path d="M 699.77253 333.88 
L 705.492289 333.88 
L 705.492289 245.010066 
L 699.77253 245.010066 
z
" clip-path="url(#pda0bfce13a)" style="fill: #1f77b4"/>
   </g>
   <g id="patch_118">
    <path d="M 705.492289 333.88 
L 711.212048 333.88 
L 711.212048 239.546312 
L 705.492289 239.546312 
z
" clip-path="url(#pda0bfce13a)" style="fill: #1f77b4"/>
   </g>
   <g id="patch_119">
    <path d="M 711.212048 333.88 
L 716.931807 333.88 
L 716.931807 171.674378 
L 711.212048 171.674378 
z
" clip-path="url(#pda0bfce13a)" style="fill: #1f77b4"/>
   </g>
   <g id="patch_120">
    <path d="M 716.931807 333.88 
L 722.651566 333.88 
L 722.651566 170.253153 
L 716.931807 170.253153 
z
" clip-path="url(#pda0bfce13a)" style="fill: #1f77b4"/>
   </g>
   <g id="patch_121">
    <path d="M 722.651566 333.88 
L 728.371325 333.88 
L 728.371325 217.230164 
L 722.651566 217.230164 
z
" clip-path="url(#pda0bfce13a)" style="fill: #1f77b4"/>
   </g>
   <g id="patch_122">
    <path d="M 728.371325 333.88 
L 734.091084 333.88 
L 734.091084 176.234128 
L 728.371325 176.234128 
z
" clip-path="url(#pda0bfce13a)" style="fill: #1f77b4"/>
   </g>
   <g id="patch_123">
    <path d="M 734.091084 333.88 
L 739.810843 333.88 
L 739.810843 146.004461 
L 734.091084 146.004461 
z
" clip-path="url(#pda0bfce13a)" style="fill: #1f77b4"/>
   </g>
   <g id="patch_124">
    <path d="M 739.810843 333.88 
L 745.530602 333.88 
L 745.530602 170.354746 
L 739.810843 170.354746 
z
" clip-path="url(#pda0bfce13a)" style="fill: #1f77b4"/>
   </g>
   <g id="patch_125">
    <path d="M 745.530602 333.88 
L 751.250361 333.88 
L 751.250361 258.035609 
L 745.530602 258.035609 
z
" clip-path="url(#pda0bfce13a)" style="fill: #1f77b4"/>
   </g>
   <g id="patch_126">
    <path d="M 751.250361 333.88 
L 756.97012 333.88 
L 756.97012 230.955263 
L 751.250361 230.955263 
z
" clip-path="url(#pda0bfce13a)" style="fill: #1f77b4"/>
   </g>
   <g id="patch_127">
    <path d="M 756.97012 333.88 
L 762.68988 333.88 
L 762.68988 163.040927 
L 756.97012 163.040927 
z
" clip-path="url(#pda0bfce13a)" style="fill: #1f77b4"/>
   </g>
   <g id="patch_128">
    <path d="M 762.68988 333.88 
L 768.409639 333.88 
L 768.409639 215.308959 
L 762.68988 215.308959 
z
" clip-path="url(#pda0bfce13a)" style="fill: #1f77b4"/>
   </g>
   <g id="patch_129">
    <path d="M 768.409639 333.88 
L 774.129398 333.88 
L 774.129398 207.271292 
L 768.409639 207.271292 
z
" clip-path="url(#pda0bfce13a)" style="fill: #1f77b4"/>
   </g>
   <g id="patch_130">
    <path d="M 774.129398 333.88 
L 779.849157 333.88 
L 779.849157 190.305482 
L 774.129398 190.305482 
z
" clip-path="url(#pda0bfce13a)" style="fill: #1f77b4"/>
   </g>
   <g id="patch_131">
    <path d="M 779.849157 333.88 
L 785.568916 333.88 
L 785.568916 185.27987 
L 779.849157 185.27987 
z
" clip-path="url(#pda0bfce13a)" style="fill: #1f77b4"/>
   </g>
   <g id="patch_132">
    <path d="M 785.568916 333.88 
L 791.288675 333.88 
L 791.288675 276.397108 
L 785.568916 276.397108 
z
" clip-path="url(#pda0bfce13a)" style="fill: #1f77b4"/>
   </g>
   <g id="patch_133">
    <path d="M 791.288675 333.88 
L 797.008434 333.88 
L 797.008434 224.561264 
L 791.288675 224.561264 
z
" clip-path="url(#pda0bfce13a)" style="fill: #1f77b4"/>
   </g>
   <g id="patch_134">
    <path d="M 797.008434 333.88 
L 802.728193 333.88 
L 802.728193 203.906892 
L 797.008434 203.906892 
z
" clip-path="url(#pda0bfce13a)" style="fill: #1f77b4"/>
   </g>
   <g id="patch_135">
    <path d="M 802.728193 333.88 
L 808.447952 333.88 
L 808.447952 199.241866 
L 802.728193 199.241866 
z
" clip-path="url(#pda0bfce13a)" style="fill: #1f77b4"/>
   </g>
   <g id="patch_136">
    <path d="M 808.447952 333.88 
L 814.167711 333.88 
L 814.167711 228.152727 
L 808.447952 228.152727 
z
" clip-path="url(#pda0bfce13a)" style="fill: #1f77b4"/>
   </g>
   <g id="patch_137">
    <path d="M 814.167711 333.88 
L 819.88747 333.88 
L 819.88747 216.429608 
L 814.167711 216.429608 
z
" clip-path="url(#pda0bfce13a)" style="fill: #1f77b4"/>
   </g>
   <g id="patch_138">
    <path d="M 819.88747 333.88 
L 825.607229 333.88 
L 825.607229 253.486135 
L 819.88747 253.486135 
z
" clip-path="url(#pda0bfce13a)" style="fill: #1f77b4"/>
   </g>
   <g id="patch_139">
    <path d="M 825.607229 333.88 
L 831.326988 333.88 
L 831.326988 121.429126 
L 825.607229 121.429126 
z
" clip-path="url(#pda0bfce13a)" style="fill: #1f77b4"/>
   </g>
   <g id="patch_140">
    <path d="M 831.326988 333.88 
L 837.046747 333.88 
L 837.046747 192.295787 
L 831.326988 192.295787 
z
" clip-path="url(#pda0bfce13a)" style="fill: #1f77b4"/>
   </g>
   <g id="patch_141">
    <path d="M 837.046747 333.88 
L 842.766506 333.88 
L 842.766506 194.866051 
L 837.046747 194.866051 
z
" clip-path="url(#pda0bfce13a)" style="fill: #1f77b4"/>
   </g>
   <g id="patch_142">
    <path d="M 842.766506 333.88 
L 848.486265 333.88 
L 848.486265 251.976149 
L 842.766506 251.976149 
z
" clip-path="url(#pda0bfce13a)" style="fill: #1f77b4"/>
   </g>
   <g id="patch_143">
    <path d="M 848.486265 333.88 
L 854.206024 333.88 
L 854.206024 243.592798 
L 848.486265 243.592798 
z
" clip-path="url(#pda0bfce13a)" style="fill: #1f77b4"/>
   </g>
   <g id="patch_144">
    <path d="M 854.206024 333.88 
L 859.925783 333.88 
L 859.925783 128.818979 
L 854.206024 128.818979 
z
" clip-path="url(#pda0bfce13a)" style="fill: #1f77b4"/>
   </g>
   <g id="patch_145">
    <path d="M 859.925783 333.88 
L 865.645542 333.88 
L 865.645542 207.271292 
L 859.925783 207.271292 
z
" clip-path="url(#pda0bfce13a)" style="fill: #1f77b4"/>
   </g>
   <g id="patch_146">
    <path d="M 865.645542 333.88 
L 871.365301 333.88 
L 871.365301 171.791786 
L 865.645542 171.791786 
z
" clip-path="url(#pda0bfce13a)" style="fill: #1f77b4"/>
   </g>
   <g id="patch_147">
    <path d="M 871.365301 333.88 
L 877.08506 333.88 
L 877.08506 158.843274 
L 871.365301 158.843274 
z
" clip-path="url(#pda0bfce13a)" style="fill: #1f77b4"/>
   </g>
   <g id="patch_148">
    <path d="M 877.08506 333.88 
L 882.804819 333.88 
L 882.804819 200.258603 
L 877.08506 200.258603 
z
" clip-path="url(#pda0bfce13a)" style="fill: #1f77b4"/>
   </g>
   <g id="patch_149">
    <path d="M 882.804819 333.88 
L 888.524578 333.88 
L 888.524578 165.387377 
L 882.804819 165.387377 
z
" clip-path="url(#pda0bfce13a)" style="fill: #1f77b4"/>
   </g>
   <g id="patch_150">
    <path d="M 888.524578 333.88 
L 894.244337 333.88 
L 894.244337 152.896896 
L 888.524578 152.896896 
z
" clip-path="url(#pda0bfce13a)" style="fill: #1f77b4"/>
   </g>
   <g id="patch_151">
    <path d="M 894.244337 333.88 
L 899.964096 333.88 
L 899.964096 178.675918 
L 894.244337 178.675918 
z
" clip-path="url(#pda0bfce13a)" style="fill: #1f77b4"/>
   </g>
   <g id="patch_152">
    <path d="M 899.964096 333.88 
L 905.683855 333.88 
L 905.683855 156.202085 
L 899.964096 156.202085 
z
" clip-path="url(#pda0bfce13a)" style="fill: #1f77b4"/>
   </g>
   <g id="patch_153">
    <path d="M 905.683855 333.88 
L 911.403614 333.88 
L 911.403614 201.479868 
L 905.683855 201.479868 
z
" clip-path="url(#pda0bfce13a)" style="fill: #1f77b4"/>
   </g>
   <g id="patch_154">
    <path d="M 911.403614 333.88 
L 917.123373 333.88 
L 917.123373 188.648526 
L 911.403614 188.648526 
z
" clip-path="url(#pda0bfce13a)" style="fill: #1f77b4"/>
   </g>
   <g id="patch_155">
    <path d="M 917.123373 333.88 
L 922.843133 333.88 
L 922.843133 126.237767 
L 917.123373 126.237767 
z
" clip-path="url(#pda0bfce13a)" style="fill: #1f77b4"/>
   </g>
   <g id="patch_156">
    <path d="M 922.843133 333.88 
L 928.562892 333.88 
L 928.562892 190.790004 
L 922.843133 190.790004 
z
" clip-path="url(#pda0bfce13a)" style="fill: #1f77b4"/>
   </g>
   <g id="patch_157">
    <path d="M 928.562892 333.88 
L 934.282651 333.88 
L 934.282651 132.046596 
L 928.562892 132.046596 
z
" clip-path="url(#pda0bfce13a)" style="fill: #1f77b4"/>
   </g>
   <g id="patch_158">
    <path d="M 934.282651 333.88 
L 940.00241 333.88 
L 940.00241 91.424012 
L 934.282651 91.424012 
z
" clip-path="url(#pda0bfce13a)" style="fill: #1f77b4"/>
   </g>
   <g id="patch_159">
    <path d="M 940.00241 333.88 
L 945.722169 333.88 
L 945.722169 125.720498 
L 940.00241 125.720498 
z
" clip-path="url(#pda0bfce13a)" style="fill: #1f77b4"/>
   </g>
   <g id="patch_160">
    <path d="M 945.722169 333.88 
L 951.441928 333.88 
L 951.441928 97.762403 
L 945.722169 97.762403 
z
" clip-path="url(#pda0bfce13a)" style="fill: #1f77b4"/>
   </g>
   <g id="patch_161">
    <path d="M 951.441928 333.88 
L 957.161687 333.88 
L 957.161687 137.155464 
L 951.441928 137.155464 
z
" clip-path="url(#pda0bfce13a)" style="fill: #1f77b4"/>
   </g>
   <g id="patch_162">
    <path d="M 957.161687 333.88 
L 962.881446 333.88 
L 962.881446 107.170196 
L 957.161687 107.170196 
z
" clip-path="url(#pda0bfce13a)" style="fill: #1f77b4"/>
   </g>
   <g id="patch_163">
    <path d="M 962.881446 333.88 
L 968.601205 333.88 
L 968.601205 79.864683 
L 962.881446 79.864683 
z
" clip-path="url(#pda0bfce13a)" style="fill: #1f77b4"/>
   </g>
   <g id="patch_164">
    <path d="M 968.601205 333.88 
L 974.320964 333.88 
L 974.320964 86.849832 
L 968.601205 86.849832 
z
" clip-path="url(#pda0bfce13a)" style="fill: #1f77b4"/>
   </g>
   <g id="patch_165">
    <path d="M 974.320964 333.88 
L 980.040723 333.88 
L 980.040723 80.525121 
L 974.320964 80.525121 
z
" clip-path="url(#pda0bfce13a)" style="fill: #1f77b4"/>
   </g>
   <g id="patch_166">
    <path d="M 980.040723 333.88 
L 985.760482 333.88 
L 985.760482 84.173217 
L 980.040723 84.173217 
z
" clip-path="url(#pda0bfce13a)" style="fill: #1f77b4"/>
   </g>
   <g id="patch_167">
    <path d="M 985.760482 333.88 
L 991.480241 333.88 
L 991.480241 61.384762 
L 985.760482 61.384762 
z
" clip-path="url(#pda0bfce13a)" style="fill: #1f77b4"/>
   </g>
   <g id="patch_168">
    <path d="M 991.480241 333.88 
L 997.2 333.88 
L 997.2 333.88 
L 991.480241 333.88 
z
" clip-path="url(#pda0bfce13a)" style="fill: #1f77b4"/>
   </g>
   <g id="matplotlib.axis_1">
    <g id="xtick_1">
     <g id="line2d_1">
      <defs>
       <path id="m1d82bfd4ad" d="M 0 0 
L 0 3.5 
" style="stroke: #000000; stroke-width: 0.8"/>
      </defs>
      <g>
       <use xlink:href="#m1d82bfd4ad" x="50.57988" y="333.88" style="stroke: #000000; stroke-width: 0.8"/>
      </g>
     </g>
     <g id="text_1">
      <!-- 0 -->
      <g transform="translate(47.39863 348.478438) scale(0.1 -0.1)">
       <defs>
        <path id="DejaVuSans-30" d="M 2034 4250 
Q 1547 4250 1301 3770 
Q 1056 3291 1056 2328 
Q 1056 1369 1301 889 
Q 1547 409 2034 409 
Q 2525 409 2770 889 
Q 3016 1369 3016 2328 
Q 3016 3291 2770 3770 
Q 2525 4250 2034 4250 
z
M 2034 4750 
Q 2819 4750 3233 4129 
Q 3647 3509 3647 2328 
Q 3647 1150 3233 529 
Q 2819 -91 2034 -91 
Q 1250 -91 836 529 
Q 422 1150 422 2328 
Q 422 3509 836 4129 
Q 1250 4750 2034 4750 
z
" transform="scale(0.015625)"/>
       </defs>
       <use xlink:href="#DejaVuSans-30"/>
      </g>
     </g>
    </g>
    <g id="xtick_2">
     <g id="line2d_2">
      <g>
       <use xlink:href="#m1d82bfd4ad" x="164.97506" y="333.88" style="stroke: #000000; stroke-width: 0.8"/>
      </g>
     </g>
     <g id="text_2">
      <!-- 20 -->
      <g transform="translate(158.61256 348.478438) scale(0.1 -0.1)">
       <defs>
        <path id="DejaVuSans-32" d="M 1228 531 
L 3431 531 
L 3431 0 
L 469 0 
L 469 531 
Q 828 903 1448 1529 
Q 2069 2156 2228 2338 
Q 2531 2678 2651 2914 
Q 2772 3150 2772 3378 
Q 2772 3750 2511 3984 
Q 2250 4219 1831 4219 
Q 1534 4219 1204 4116 
Q 875 4013 500 3803 
L 500 4441 
Q 881 4594 1212 4672 
Q 1544 4750 1819 4750 
Q 2544 4750 2975 4387 
Q 3406 4025 3406 3419 
Q 3406 3131 3298 2873 
Q 3191 2616 2906 2266 
Q 2828 2175 2409 1742 
Q 1991 1309 1228 531 
z
" transform="scale(0.015625)"/>
       </defs>
       <use xlink:href="#DejaVuSans-32"/>
       <use xlink:href="#DejaVuSans-30" transform="translate(63.623047 0)"/>
      </g>
     </g>
    </g>
    <g id="xtick_3">
     <g id="line2d_3">
      <g>
       <use xlink:href="#m1d82bfd4ad" x="279.370241" y="333.88" style="stroke: #000000; stroke-width: 0.8"/>
      </g>
     </g>
     <g id="text_3">
      <!-- 40 -->
      <g transform="translate(273.007741 348.478438) scale(0.1 -0.1)">
       <defs>
        <path id="DejaVuSans-34" d="M 2419 4116 
L 825 1625 
L 2419 1625 
L 2419 4116 
z
M 2253 4666 
L 3047 4666 
L 3047 1625 
L 3713 1625 
L 3713 1100 
L 3047 1100 
L 3047 0 
L 2419 0 
L 2419 1100 
L 313 1100 
L 313 1709 
L 2253 4666 
z
" transform="scale(0.015625)"/>
       </defs>
       <use xlink:href="#DejaVuSans-34"/>
       <use xlink:href="#DejaVuSans-30" transform="translate(63.623047 0)"/>
      </g>
     </g>
    </g>
    <g id="xtick_4">
     <g id="line2d_4">
      <g>
       <use xlink:href="#m1d82bfd4ad" x="393.765422" y="333.88" style="stroke: #000000; stroke-width: 0.8"/>
      </g>
     </g>
     <g id="text_4">
      <!-- 60 -->
      <g transform="translate(387.402922 348.478438) scale(0.1 -0.1)">
       <defs>
        <path id="DejaVuSans-36" d="M 2113 2584 
Q 1688 2584 1439 2293 
Q 1191 2003 1191 1497 
Q 1191 994 1439 701 
Q 1688 409 2113 409 
Q 2538 409 2786 701 
Q 3034 994 3034 1497 
Q 3034 2003 2786 2293 
Q 2538 2584 2113 2584 
z
M 3366 4563 
L 3366 3988 
Q 3128 4100 2886 4159 
Q 2644 4219 2406 4219 
Q 1781 4219 1451 3797 
Q 1122 3375 1075 2522 
Q 1259 2794 1537 2939 
Q 1816 3084 2150 3084 
Q 2853 3084 3261 2657 
Q 3669 2231 3669 1497 
Q 3669 778 3244 343 
Q 2819 -91 2113 -91 
Q 1303 -91 875 529 
Q 447 1150 447 2328 
Q 447 3434 972 4092 
Q 1497 4750 2381 4750 
Q 2619 4750 2861 4703 
Q 3103 4656 3366 4563 
z
" transform="scale(0.015625)"/>
       </defs>
       <use xlink:href="#DejaVuSans-36"/>
       <use xlink:href="#DejaVuSans-30" transform="translate(63.623047 0)"/>
      </g>
     </g>
    </g>
    <g id="xtick_5">
     <g id="line2d_5">
      <g>
       <use xlink:href="#m1d82bfd4ad" x="508.160602" y="333.88" style="stroke: #000000; stroke-width: 0.8"/>
      </g>
     </g>
     <g id="text_5">
      <!-- 80 -->
      <g transform="translate(501.798102 348.478438) scale(0.1 -0.1)">
       <defs>
        <path id="DejaVuSans-38" d="M 2034 2216 
Q 1584 2216 1326 1975 
Q 1069 1734 1069 1313 
Q 1069 891 1326 650 
Q 1584 409 2034 409 
Q 2484 409 2743 651 
Q 3003 894 3003 1313 
Q 3003 1734 2745 1975 
Q 2488 2216 2034 2216 
z
M 1403 2484 
Q 997 2584 770 2862 
Q 544 3141 544 3541 
Q 544 4100 942 4425 
Q 1341 4750 2034 4750 
Q 2731 4750 3128 4425 
Q 3525 4100 3525 3541 
Q 3525 3141 3298 2862 
Q 3072 2584 2669 2484 
Q 3125 2378 3379 2068 
Q 3634 1759 3634 1313 
Q 3634 634 3220 271 
Q 2806 -91 2034 -91 
Q 1263 -91 848 271 
Q 434 634 434 1313 
Q 434 1759 690 2068 
Q 947 2378 1403 2484 
z
M 1172 3481 
Q 1172 3119 1398 2916 
Q 1625 2713 2034 2713 
Q 2441 2713 2670 2916 
Q 2900 3119 2900 3481 
Q 2900 3844 2670 4047 
Q 2441 4250 2034 4250 
Q 1625 4250 1398 4047 
Q 1172 3844 1172 3481 
z
" transform="scale(0.015625)"/>
       </defs>
       <use xlink:href="#DejaVuSans-38"/>
       <use xlink:href="#DejaVuSans-30" transform="translate(63.623047 0)"/>
      </g>
     </g>
    </g>
    <g id="xtick_6">
     <g id="line2d_6">
      <g>
       <use xlink:href="#m1d82bfd4ad" x="622.555783" y="333.88" style="stroke: #000000; stroke-width: 0.8"/>
      </g>
     </g>
     <g id="text_6">
      <!-- 100 -->
      <g transform="translate(613.012033 348.478438) scale(0.1 -0.1)">
       <defs>
        <path id="DejaVuSans-31" d="M 794 531 
L 1825 531 
L 1825 4091 
L 703 3866 
L 703 4441 
L 1819 4666 
L 2450 4666 
L 2450 531 
L 3481 531 
L 3481 0 
L 794 0 
L 794 531 
z
" transform="scale(0.015625)"/>
       </defs>
       <use xlink:href="#DejaVuSans-31"/>
       <use xlink:href="#DejaVuSans-30" transform="translate(63.623047 0)"/>
       <use xlink:href="#DejaVuSans-30" transform="translate(127.246094 0)"/>
      </g>
     </g>
    </g>
    <g id="xtick_7">
     <g id="line2d_7">
      <g>
       <use xlink:href="#m1d82bfd4ad" x="736.950964" y="333.88" style="stroke: #000000; stroke-width: 0.8"/>
      </g>
     </g>
     <g id="text_7">
      <!-- 120 -->
      <g transform="translate(727.407214 348.478438) scale(0.1 -0.1)">
       <use xlink:href="#DejaVuSans-31"/>
       <use xlink:href="#DejaVuSans-32" transform="translate(63.623047 0)"/>
       <use xlink:href="#DejaVuSans-30" transform="translate(127.246094 0)"/>
      </g>
     </g>
    </g>
    <g id="xtick_8">
     <g id="line2d_8">
      <g>
       <use xlink:href="#m1d82bfd4ad" x="851.346145" y="333.88" style="stroke: #000000; stroke-width: 0.8"/>
      </g>
     </g>
     <g id="text_8">
      <!-- 140 -->
      <g transform="translate(841.802395 348.478438) scale(0.1 -0.1)">
       <use xlink:href="#DejaVuSans-31"/>
       <use xlink:href="#DejaVuSans-34" transform="translate(63.623047 0)"/>
       <use xlink:href="#DejaVuSans-30" transform="translate(127.246094 0)"/>
      </g>
     </g>
    </g>
    <g id="xtick_9">
     <g id="line2d_9">
      <g>
       <use xlink:href="#m1d82bfd4ad" x="965.741325" y="333.88" style="stroke: #000000; stroke-width: 0.8"/>
      </g>
     </g>
     <g id="text_9">
      <!-- 160 -->
      <g transform="translate(956.197575 348.478438) scale(0.1 -0.1)">
       <use xlink:href="#DejaVuSans-31"/>
       <use xlink:href="#DejaVuSans-36" transform="translate(63.623047 0)"/>
       <use xlink:href="#DejaVuSans-30" transform="translate(127.246094 0)"/>
      </g>
     </g>
    </g>
    <g id="text_10">
     <!-- Bit position -->
     <g transform="translate(494.286562 362.156563) scale(0.1 -0.1)">
      <defs>
       <path id="DejaVuSans-42" d="M 1259 2228 
L 1259 519 
L 2272 519 
Q 2781 519 3026 730 
Q 3272 941 3272 1375 
Q 3272 1813 3026 2020 
Q 2781 2228 2272 2228 
L 1259 2228 
z
M 1259 4147 
L 1259 2741 
L 2194 2741 
Q 2656 2741 2882 2914 
Q 3109 3088 3109 3444 
Q 3109 3797 2882 3972 
Q 2656 4147 2194 4147 
L 1259 4147 
z
M 628 4666 
L 2241 4666 
Q 2963 4666 3353 4366 
Q 3744 4066 3744 3513 
Q 3744 3084 3544 2831 
Q 3344 2578 2956 2516 
Q 3422 2416 3680 2098 
Q 3938 1781 3938 1306 
Q 3938 681 3513 340 
Q 3088 0 2303 0 
L 628 0 
L 628 4666 
z
" transform="scale(0.015625)"/>
       <path id="DejaVuSans-69" d="M 603 3500 
L 1178 3500 
L 1178 0 
L 603 0 
L 603 3500 
z
M 603 4863 
L 1178 4863 
L 1178 4134 
L 603 4134 
L 603 4863 
z
" transform="scale(0.015625)"/>
       <path id="DejaVuSans-74" d="M 1172 4494 
L 1172 3500 
L 2356 3500 
L 2356 3053 
L 1172 3053 
L 1172 1153 
Q 1172 725 1289 603 
Q 1406 481 1766 481 
L 2356 481 
L 2356 0 
L 1766 0 
Q 1100 0 847 248 
Q 594 497 594 1153 
L 594 3053 
L 172 3053 
L 172 3500 
L 594 3500 
L 594 4494 
L 1172 4494 
z
" transform="scale(0.015625)"/>
       <path id="DejaVuSans-20" transform="scale(0.015625)"/>
       <path id="DejaVuSans-70" d="M 1159 525 
L 1159 -1331 
L 581 -1331 
L 581 3500 
L 1159 3500 
L 1159 2969 
Q 1341 3281 1617 3432 
Q 1894 3584 2278 3584 
Q 2916 3584 3314 3078 
Q 3713 2572 3713 1747 
Q 3713 922 3314 415 
Q 2916 -91 2278 -91 
Q 1894 -91 1617 61 
Q 1341 213 1159 525 
z
M 3116 1747 
Q 3116 2381 2855 2742 
Q 2594 3103 2138 3103 
Q 1681 3103 1420 2742 
Q 1159 2381 1159 1747 
Q 1159 1113 1420 752 
Q 1681 391 2138 391 
Q 2594 391 2855 752 
Q 3116 1113 3116 1747 
z
" transform="scale(0.015625)"/>
       <path id="DejaVuSans-6f" d="M 1959 3097 
Q 1497 3097 1228 2736 
Q 959 2375 959 1747 
Q 959 1119 1226 758 
Q 1494 397 1959 397 
Q 2419 397 2687 759 
Q 2956 1122 2956 1747 
Q 2956 2369 2687 2733 
Q 2419 3097 1959 3097 
z
M 1959 3584 
Q 2709 3584 3137 3096 
Q 3566 2609 3566 1747 
Q 3566 888 3137 398 
Q 2709 -91 1959 -91 
Q 1206 -91 779 398 
Q 353 888 353 1747 
Q 353 2609 779 3096 
Q 1206 3584 1959 3584 
z
" transform="scale(0.015625)"/>
       <path id="DejaVuSans-73" d="M 2834 3397 
L 2834 2853 
Q 2591 2978 2328 3040 
Q 2066 3103 1784 3103 
Q 1356 3103 1142 2972 
Q 928 2841 928 2578 
Q 928 2378 1081 2264 
Q 1234 2150 1697 2047 
L 1894 2003 
Q 2506 1872 2764 1633 
Q 3022 1394 3022 966 
Q 3022 478 2636 193 
Q 2250 -91 1575 -91 
Q 1294 -91 989 -36 
Q 684 19 347 128 
L 347 722 
Q 666 556 975 473 
Q 1284 391 1588 391 
Q 1994 391 2212 530 
Q 2431 669 2431 922 
Q 2431 1156 2273 1281 
Q 2116 1406 1581 1522 
L 1381 1569 
Q 847 1681 609 1914 
Q 372 2147 372 2553 
Q 372 3047 722 3315 
Q 1072 3584 1716 3584 
Q 2034 3584 2315 3537 
Q 2597 3491 2834 3397 
z
" transform="scale(0.015625)"/>
       <path id="DejaVuSans-6e" d="M 3513 2113 
L 3513 0 
L 2938 0 
L 2938 2094 
Q 2938 2591 2744 2837 
Q 2550 3084 2163 3084 
Q 1697 3084 1428 2787 
Q 1159 2491 1159 1978 
L 1159 0 
L 581 0 
L 581 3500 
L 1159 3500 
L 1159 2956 
Q 1366 3272 1645 3428 
Q 1925 3584 2291 3584 
Q 2894 3584 3203 3211 
Q 3513 2838 3513 2113 
z
" transform="scale(0.015625)"/>
      </defs>
      <use xlink:href="#DejaVuSans-42"/>
      <use xlink:href="#DejaVuSans-69" transform="translate(68.603516 0)"/>
      <use xlink:href="#DejaVuSans-74" transform="translate(96.386719 0)"/>
      <use xlink:href="#DejaVuSans-20" transform="translate(135.595703 0)"/>
      <use xlink:href="#DejaVuSans-70" transform="translate(167.382812 0)"/>
      <use xlink:href="#DejaVuSans-6f" transform="translate(230.859375 0)"/>
      <use xlink:href="#DejaVuSans-73" transform="translate(292.041016 0)"/>
      <use xlink:href="#DejaVuSans-69" transform="translate(344.140625 0)"/>
      <use xlink:href="#DejaVuSans-74" transform="translate(371.923828 0)"/>
      <use xlink:href="#DejaVuSans-69" transform="translate(411.132812 0)"/>
      <use xlink:href="#DejaVuSans-6f" transform="translate(438.916016 0)"/>
      <use xlink:href="#DejaVuSans-6e" transform="translate(500.097656 0)"/>
     </g>
    </g>
   </g>
   <g id="matplotlib.axis_2">
    <g id="ytick_1">
     <g id="line2d_10">
      <defs>
       <path id="m0ff141b61a" d="M 0 0 
L -3.5 0 
" style="stroke: #000000; stroke-width: 0.8"/>
      </defs>
      <g>
       <use xlink:href="#m0ff141b61a" x="47.72" y="333.88" style="stroke: #000000; stroke-width: 0.8"/>
      </g>
     </g>
     <g id="text_11">
      <!-- 0.0 -->
      <g transform="translate(24.816875 337.679219) scale(0.1 -0.1)">
       <defs>
        <path id="DejaVuSans-2e" d="M 684 794 
L 1344 794 
L 1344 0 
L 684 0 
L 684 794 
z
" transform="scale(0.015625)"/>
       </defs>
       <use xlink:href="#DejaVuSans-30"/>
       <use xlink:href="#DejaVuSans-2e" transform="translate(63.623047 0)"/>
       <use xlink:href="#DejaVuSans-30" transform="translate(95.410156 0)"/>
      </g>
     </g>
    </g>
    <g id="ytick_2">
     <g id="line2d_11">
      <g>
       <use xlink:href="#m0ff141b61a" x="47.72" y="287.313743" style="stroke: #000000; stroke-width: 0.8"/>
      </g>
     </g>
     <g id="text_12">
      <!-- 0.2 -->
      <g transform="translate(24.816875 291.112962) scale(0.1 -0.1)">
       <use xlink:href="#DejaVuSans-30"/>
       <use xlink:href="#DejaVuSans-2e" transform="translate(63.623047 0)"/>
       <use xlink:href="#DejaVuSans-32" transform="translate(95.410156 0)"/>
      </g>
     </g>
    </g>
    <g id="ytick_3">
     <g id="line2d_12">
      <g>
       <use xlink:href="#m0ff141b61a" x="47.72" y="240.747486" style="stroke: #000000; stroke-width: 0.8"/>
      </g>
     </g>
     <g id="text_13">
      <!-- 0.4 -->
      <g transform="translate(24.816875 244.546705) scale(0.1 -0.1)">
       <use xlink:href="#DejaVuSans-30"/>
       <use xlink:href="#DejaVuSans-2e" transform="translate(63.623047 0)"/>
       <use xlink:href="#DejaVuSans-34" transform="translate(95.410156 0)"/>
      </g>
     </g>
    </g>
    <g id="ytick_4">
     <g id="line2d_13">
      <g>
       <use xlink:href="#m0ff141b61a" x="47.72" y="194.181229" style="stroke: #000000; stroke-width: 0.8"/>
      </g>
     </g>
     <g id="text_14">
      <!-- 0.6 -->
      <g transform="translate(24.816875 197.980447) scale(0.1 -0.1)">
       <use xlink:href="#DejaVuSans-30"/>
       <use xlink:href="#DejaVuSans-2e" transform="translate(63.623047 0)"/>
       <use xlink:href="#DejaVuSans-36" transform="translate(95.410156 0)"/>
      </g>
     </g>
    </g>
    <g id="ytick_5">
     <g id="line2d_14">
      <g>
       <use xlink:href="#m0ff141b61a" x="47.72" y="147.614972" style="stroke: #000000; stroke-width: 0.8"/>
      </g>
     </g>
     <g id="text_15">
      <!-- 0.8 -->
      <g transform="translate(24.816875 151.41419) scale(0.1 -0.1)">
       <use xlink:href="#DejaVuSans-30"/>
       <use xlink:href="#DejaVuSans-2e" transform="translate(63.623047 0)"/>
       <use xlink:href="#DejaVuSans-38" transform="translate(95.410156 0)"/>
      </g>
     </g>
    </g>
    <g id="ytick_6">
     <g id="line2d_15">
      <g>
       <use xlink:href="#m0ff141b61a" x="47.72" y="101.048715" style="stroke: #000000; stroke-width: 0.8"/>
      </g>
     </g>
     <g id="text_16">
      <!-- 1.0 -->
      <g transform="translate(24.816875 104.847933) scale(0.1 -0.1)">
       <use xlink:href="#DejaVuSans-31"/>
       <use xlink:href="#DejaVuSans-2e" transform="translate(63.623047 0)"/>
       <use xlink:href="#DejaVuSans-30" transform="translate(95.410156 0)"/>
      </g>
     </g>
    </g>
    <g id="ytick_7">
     <g id="line2d_16">
      <g>
       <use xlink:href="#m0ff141b61a" x="47.72" y="54.482457" style="stroke: #000000; stroke-width: 0.8"/>
      </g>
     </g>
     <g id="text_17">
      <!-- 1.2 -->
      <g transform="translate(24.816875 58.281676) scale(0.1 -0.1)">
       <use xlink:href="#DejaVuSans-31"/>
       <use xlink:href="#DejaVuSans-2e" transform="translate(63.623047 0)"/>
       <use xlink:href="#DejaVuSans-32" transform="translate(95.410156 0)"/>
      </g>
     </g>
    </g>
    <g id="text_18">
     <!-- Count -->
     <g transform="translate(18.737187 205.668438) rotate(-90) scale(0.1 -0.1)">
      <defs>
       <path id="DejaVuSans-43" d="M 4122 4306 
L 4122 3641 
Q 3803 3938 3442 4084 
Q 3081 4231 2675 4231 
Q 1875 4231 1450 3742 
Q 1025 3253 1025 2328 
Q 1025 1406 1450 917 
Q 1875 428 2675 428 
Q 3081 428 3442 575 
Q 3803 722 4122 1019 
L 4122 359 
Q 3791 134 3420 21 
Q 3050 -91 2638 -91 
Q 1578 -91 968 557 
Q 359 1206 359 2328 
Q 359 3453 968 4101 
Q 1578 4750 2638 4750 
Q 3056 4750 3426 4639 
Q 3797 4528 4122 4306 
z
" transform="scale(0.015625)"/>
       <path id="DejaVuSans-75" d="M 544 1381 
L 544 3500 
L 1119 3500 
L 1119 1403 
Q 1119 906 1312 657 
Q 1506 409 1894 409 
Q 2359 409 2629 706 
Q 2900 1003 2900 1516 
L 2900 3500 
L 3475 3500 
L 3475 0 
L 2900 0 
L 2900 538 
Q 2691 219 2414 64 
Q 2138 -91 1772 -91 
Q 1169 -91 856 284 
Q 544 659 544 1381 
z
M 1991 3584 
L 1991 3584 
z
" transform="scale(0.015625)"/>
      </defs>
      <use xlink:href="#DejaVuSans-43"/>
      <use xlink:href="#DejaVuSans-6f" transform="translate(69.824219 0)"/>
      <use xlink:href="#DejaVuSans-75" transform="translate(131.005859 0)"/>
      <use xlink:href="#DejaVuSans-6e" transform="translate(194.384766 0)"/>
      <use xlink:href="#DejaVuSans-74" transform="translate(257.763672 0)"/>
     </g>
    </g>
    <g id="text_19">
     <!-- 1e8 -->
     <g transform="translate(47.72 44.76) scale(0.1 -0.1)">
      <defs>
       <path id="DejaVuSans-65" d="M 3597 1894 
L 3597 1613 
L 953 1613 
Q 991 1019 1311 708 
Q 1631 397 2203 397 
Q 2534 397 2845 478 
Q 3156 559 3463 722 
L 3463 178 
Q 3153 47 2828 -22 
Q 2503 -91 2169 -91 
Q 1331 -91 842 396 
Q 353 884 353 1716 
Q 353 2575 817 3079 
Q 1281 3584 2069 3584 
Q 2775 3584 3186 3129 
Q 3597 2675 3597 1894 
z
M 3022 2063 
Q 3016 2534 2758 2815 
Q 2500 3097 2075 3097 
Q 1594 3097 1305 2825 
Q 1016 2553 972 2059 
L 3022 2063 
z
" transform="scale(0.015625)"/>
      </defs>
      <use xlink:href="#DejaVuSans-31"/>
      <use xlink:href="#DejaVuSans-65" transform="translate(63.623047 0)"/>
      <use xlink:href="#DejaVuSans-38" transform="translate(125.146484 0)"/>
     </g>
    </g>
   </g>
   <g id="patch_169">
    <path d="M 47.72 333.88 
L 47.72 47.76 
" style="fill: none; stroke: #000000; stroke-width: 0.8; stroke-linejoin: miter; stroke-linecap: square"/>
   </g>
   <g id="patch_170">
    <path d="M 997.2 333.88 
L 997.2 47.76 
" style="fill: none; stroke: #000000; stroke-width: 0.8; stroke-linejoin: miter; stroke-linecap: square"/>
   </g>
   <g id="patch_171">
    <path d="M 47.72 333.88 
L 997.2 333.88 
" style="fill: none; stroke: #000000; stroke-width: 0.8; stroke-linejoin: miter; stroke-linecap: square"/>
   </g>
   <g id="patch_172">
    <path d="M 47.72 47.76 
L 997.2 47.76 
" style="fill: none; stroke: #000000; stroke-width: 0.8; stroke-linejoin: miter; stroke-linecap: square"/>
   </g>
   <g id="text_20">
    <!-- MACCS_166: count per bit position -->
    <g transform="translate(418.505312 41.76) scale(0.12 -0.12)">
     <defs>
      <path id="DejaVuSans-4d" d="M 628 4666 
L 1569 4666 
L 2759 1491 
L 3956 4666 
L 4897 4666 
L 4897 0 
L 4281 0 
L 4281 4097 
L 3078 897 
L 2444 897 
L 1241 4097 
L 1241 0 
L 628 0 
L 628 4666 
z
" transform="scale(0.015625)"/>
      <path id="DejaVuSans-41" d="M 2188 4044 
L 1331 1722 
L 3047 1722 
L 2188 4044 
z
M 1831 4666 
L 2547 4666 
L 4325 0 
L 3669 0 
L 3244 1197 
L 1141 1197 
L 716 0 
L 50 0 
L 1831 4666 
z
" transform="scale(0.015625)"/>
      <path id="DejaVuSans-53" d="M 3425 4513 
L 3425 3897 
Q 3066 4069 2747 4153 
Q 2428 4238 2131 4238 
Q 1616 4238 1336 4038 
Q 1056 3838 1056 3469 
Q 1056 3159 1242 3001 
Q 1428 2844 1947 2747 
L 2328 2669 
Q 3034 2534 3370 2195 
Q 3706 1856 3706 1288 
Q 3706 609 3251 259 
Q 2797 -91 1919 -91 
Q 1588 -91 1214 -16 
Q 841 59 441 206 
L 441 856 
Q 825 641 1194 531 
Q 1563 422 1919 422 
Q 2459 422 2753 634 
Q 3047 847 3047 1241 
Q 3047 1584 2836 1778 
Q 2625 1972 2144 2069 
L 1759 2144 
Q 1053 2284 737 2584 
Q 422 2884 422 3419 
Q 422 4038 858 4394 
Q 1294 4750 2059 4750 
Q 2388 4750 2728 4690 
Q 3069 4631 3425 4513 
z
" transform="scale(0.015625)"/>
      <path id="DejaVuSans-5f" d="M 3263 -1063 
L 3263 -1509 
L -63 -1509 
L -63 -1063 
L 3263 -1063 
z
" transform="scale(0.015625)"/>
      <path id="DejaVuSans-3a" d="M 750 794 
L 1409 794 
L 1409 0 
L 750 0 
L 750 794 
z
M 750 3309 
L 1409 3309 
L 1409 2516 
L 750 2516 
L 750 3309 
z
" transform="scale(0.015625)"/>
      <path id="DejaVuSans-63" d="M 3122 3366 
L 3122 2828 
Q 2878 2963 2633 3030 
Q 2388 3097 2138 3097 
Q 1578 3097 1268 2742 
Q 959 2388 959 1747 
Q 959 1106 1268 751 
Q 1578 397 2138 397 
Q 2388 397 2633 464 
Q 2878 531 3122 666 
L 3122 134 
Q 2881 22 2623 -34 
Q 2366 -91 2075 -91 
Q 1284 -91 818 406 
Q 353 903 353 1747 
Q 353 2603 823 3093 
Q 1294 3584 2113 3584 
Q 2378 3584 2631 3529 
Q 2884 3475 3122 3366 
z
" transform="scale(0.015625)"/>
      <path id="DejaVuSans-72" d="M 2631 2963 
Q 2534 3019 2420 3045 
Q 2306 3072 2169 3072 
Q 1681 3072 1420 2755 
Q 1159 2438 1159 1844 
L 1159 0 
L 581 0 
L 581 3500 
L 1159 3500 
L 1159 2956 
Q 1341 3275 1631 3429 
Q 1922 3584 2338 3584 
Q 2397 3584 2469 3576 
Q 2541 3569 2628 3553 
L 2631 2963 
z
" transform="scale(0.015625)"/>
      <path id="DejaVuSans-62" d="M 3116 1747 
Q 3116 2381 2855 2742 
Q 2594 3103 2138 3103 
Q 1681 3103 1420 2742 
Q 1159 2381 1159 1747 
Q 1159 1113 1420 752 
Q 1681 391 2138 391 
Q 2594 391 2855 752 
Q 3116 1113 3116 1747 
z
M 1159 2969 
Q 1341 3281 1617 3432 
Q 1894 3584 2278 3584 
Q 2916 3584 3314 3078 
Q 3713 2572 3713 1747 
Q 3713 922 3314 415 
Q 2916 -91 2278 -91 
Q 1894 -91 1617 61 
Q 1341 213 1159 525 
L 1159 0 
L 581 0 
L 581 4863 
L 1159 4863 
L 1159 2969 
z
" transform="scale(0.015625)"/>
     </defs>
     <use xlink:href="#DejaVuSans-4d"/>
     <use xlink:href="#DejaVuSans-41" transform="translate(86.279297 0)"/>
     <use xlink:href="#DejaVuSans-43" transform="translate(152.9375 0)"/>
     <use xlink:href="#DejaVuSans-43" transform="translate(222.761719 0)"/>
     <use xlink:href="#DejaVuSans-53" transform="translate(292.585938 0)"/>
     <use xlink:href="#DejaVuSans-5f" transform="translate(356.0625 0)"/>
     <use xlink:href="#DejaVuSans-31" transform="translate(406.0625 0)"/>
     <use xlink:href="#DejaVuSans-36" transform="translate(469.685547 0)"/>
     <use xlink:href="#DejaVuSans-36" transform="translate(533.308594 0)"/>
     <use xlink:href="#DejaVuSans-3a" transform="translate(596.931641 0)"/>
     <use xlink:href="#DejaVuSans-20" transform="translate(630.623047 0)"/>
     <use xlink:href="#DejaVuSans-63" transform="translate(662.410156 0)"/>
     <use xlink:href="#DejaVuSans-6f" transform="translate(717.390625 0)"/>
     <use xlink:href="#DejaVuSans-75" transform="translate(778.572266 0)"/>
     <use xlink:href="#DejaVuSans-6e" transform="translate(841.951172 0)"/>
     <use xlink:href="#DejaVuSans-74" transform="translate(905.330078 0)"/>
     <use xlink:href="#DejaVuSans-20" transform="translate(944.539062 0)"/>
     <use xlink:href="#DejaVuSans-70" transform="translate(976.326172 0)"/>
     <use xlink:href="#DejaVuSans-65" transform="translate(1039.802734 0)"/>
     <use xlink:href="#DejaVuSans-72" transform="translate(1101.326172 0)"/>
     <use xlink:href="#DejaVuSans-20" transform="translate(1142.439453 0)"/>
     <use xlink:href="#DejaVuSans-62" transform="translate(1174.226562 0)"/>
     <use xlink:href="#DejaVuSans-69" transform="translate(1237.703125 0)"/>
     <use xlink:href="#DejaVuSans-74" transform="translate(1265.486328 0)"/>
     <use xlink:href="#DejaVuSans-20" transform="translate(1304.695312 0)"/>
     <use xlink:href="#DejaVuSans-70" transform="translate(1336.482422 0)"/>
     <use xlink:href="#DejaVuSans-6f" transform="translate(1399.958984 0)"/>
     <use xlink:href="#DejaVuSans-73" transform="translate(1461.140625 0)"/>
     <use xlink:href="#DejaVuSans-69" transform="translate(1513.240234 0)"/>
     <use xlink:href="#DejaVuSans-74" transform="translate(1541.023438 0)"/>
     <use xlink:href="#DejaVuSans-69" transform="translate(1580.232422 0)"/>
     <use xlink:href="#DejaVuSans-6f" transform="translate(1608.015625 0)"/>
     <use xlink:href="#DejaVuSans-6e" transform="translate(1669.197266 0)"/>
    </g>
   </g>
  </g>
  <g id="axes_2">
   <g id="patch_173">
    <path d="M 47.72 678.04 
L 997.2 678.04 
L 997.2 391.92 
L 47.72 391.92 
z
" style="fill: #ffffff"/>
   </g>
   <g id="patch_174">
    <path d="M 90.878182 678.04 
L 108.141455 678.04 
L 108.141455 405.544762 
L 90.878182 405.544762 
z
" clip-path="url(#pfb5ec36366)" style="fill: #1f77b4; stroke: #000000; stroke-width: 0.5; stroke-linejoin: miter"/>
   </g>
   <g id="patch_175">
    <path d="M 108.141455 678.04 
L 125.404727 678.04 
L 125.404727 632.624127 
L 108.141455 632.624127 
z
" clip-path="url(#pfb5ec36366)" style="fill: #1f77b4; stroke: #000000; stroke-width: 0.5; stroke-linejoin: miter"/>
   </g>
   <g id="patch_176">
    <path d="M 125.404727 678.04 
L 142.668 678.04 
L 142.668 614.457778 
L 125.404727 614.457778 
z
" clip-path="url(#pfb5ec36366)" style="fill: #1f77b4; stroke: #000000; stroke-width: 0.5; stroke-linejoin: miter"/>
   </g>
   <g id="patch_177">
    <path d="M 142.668 678.04 
L 159.931273 678.04 
L 159.931273 623.540952 
L 142.668 623.540952 
z
" clip-path="url(#pfb5ec36366)" style="fill: #1f77b4; stroke: #000000; stroke-width: 0.5; stroke-linejoin: miter"/>
   </g>
   <g id="patch_178">
    <path d="M 159.931273 678.04 
L 177.194545 678.04 
L 177.194545 623.540952 
L 159.931273 623.540952 
z
" clip-path="url(#pfb5ec36366)" style="fill: #1f77b4; stroke: #000000; stroke-width: 0.5; stroke-linejoin: miter"/>
   </g>
   <g id="patch_179">
    <path d="M 177.194545 678.04 
L 194.457818 678.04 
L 194.457818 605.374603 
L 177.194545 605.374603 
z
" clip-path="url(#pfb5ec36366)" style="fill: #1f77b4; stroke: #000000; stroke-width: 0.5; stroke-linejoin: miter"/>
   </g>
   <g id="patch_180">
    <path d="M 194.457818 678.04 
L 211.721091 678.04 
L 211.721091 632.624127 
L 194.457818 632.624127 
z
" clip-path="url(#pfb5ec36366)" style="fill: #1f77b4; stroke: #000000; stroke-width: 0.5; stroke-linejoin: miter"/>
   </g>
   <g id="patch_181">
    <path d="M 211.721091 678.04 
L 228.984364 678.04 
L 228.984364 668.956825 
L 211.721091 668.956825 
z
" clip-path="url(#pfb5ec36366)" style="fill: #1f77b4; stroke: #000000; stroke-width: 0.5; stroke-linejoin: miter"/>
   </g>
   <g id="patch_182">
    <path d="M 228.984364 678.04 
L 246.247636 678.04 
L 246.247636 668.956825 
L 228.984364 668.956825 
z
" clip-path="url(#pfb5ec36366)" style="fill: #1f77b4; stroke: #000000; stroke-width: 0.5; stroke-linejoin: miter"/>
   </g>
   <g id="patch_183">
    <path d="M 246.247636 678.04 
L 263.510909 678.04 
L 263.510909 650.790476 
L 246.247636 650.790476 
z
" clip-path="url(#pfb5ec36366)" style="fill: #1f77b4; stroke: #000000; stroke-width: 0.5; stroke-linejoin: miter"/>
   </g>
   <g id="patch_184">
    <path d="M 263.510909 678.04 
L 280.774182 678.04 
L 280.774182 632.624127 
L 263.510909 632.624127 
z
" clip-path="url(#pfb5ec36366)" style="fill: #1f77b4; stroke: #000000; stroke-width: 0.5; stroke-linejoin: miter"/>
   </g>
   <g id="patch_185">
    <path d="M 280.774182 678.04 
L 298.037455 678.04 
L 298.037455 641.707302 
L 280.774182 641.707302 
z
" clip-path="url(#pfb5ec36366)" style="fill: #1f77b4; stroke: #000000; stroke-width: 0.5; stroke-linejoin: miter"/>
   </g>
   <g id="patch_186">
    <path d="M 298.037455 678.04 
L 315.300727 678.04 
L 315.300727 668.956825 
L 298.037455 668.956825 
z
" clip-path="url(#pfb5ec36366)" style="fill: #1f77b4; stroke: #000000; stroke-width: 0.5; stroke-linejoin: miter"/>
   </g>
   <g id="patch_187">
    <path d="M 315.300727 678.04 
L 332.564 678.04 
L 332.564 659.873651 
L 315.300727 659.873651 
z
" clip-path="url(#pfb5ec36366)" style="fill: #1f77b4; stroke: #000000; stroke-width: 0.5; stroke-linejoin: miter"/>
   </g>
   <g id="patch_188">
    <path d="M 332.564 678.04 
L 349.827273 678.04 
L 349.827273 668.956825 
L 332.564 668.956825 
z
" clip-path="url(#pfb5ec36366)" style="fill: #1f77b4; stroke: #000000; stroke-width: 0.5; stroke-linejoin: miter"/>
   </g>
   <g id="patch_189">
    <path d="M 349.827273 678.04 
L 367.090545 678.04 
L 367.090545 650.790476 
L 349.827273 650.790476 
z
" clip-path="url(#pfb5ec36366)" style="fill: #1f77b4; stroke: #000000; stroke-width: 0.5; stroke-linejoin: miter"/>
   </g>
   <g id="patch_190">
    <path d="M 367.090545 678.04 
L 384.353818 678.04 
L 384.353818 641.707302 
L 367.090545 641.707302 
z
" clip-path="url(#pfb5ec36366)" style="fill: #1f77b4; stroke: #000000; stroke-width: 0.5; stroke-linejoin: miter"/>
   </g>
   <g id="patch_191">
    <path d="M 384.353818 678.04 
L 401.617091 678.04 
L 401.617091 632.624127 
L 384.353818 632.624127 
z
" clip-path="url(#pfb5ec36366)" style="fill: #1f77b4; stroke: #000000; stroke-width: 0.5; stroke-linejoin: miter"/>
   </g>
   <g id="patch_192">
    <path d="M 401.617091 678.04 
L 418.880364 678.04 
L 418.880364 632.624127 
L 401.617091 632.624127 
z
" clip-path="url(#pfb5ec36366)" style="fill: #1f77b4; stroke: #000000; stroke-width: 0.5; stroke-linejoin: miter"/>
   </g>
   <g id="patch_193">
    <path d="M 418.880364 678.04 
L 436.143636 678.04 
L 436.143636 641.707302 
L 418.880364 641.707302 
z
" clip-path="url(#pfb5ec36366)" style="fill: #1f77b4; stroke: #000000; stroke-width: 0.5; stroke-linejoin: miter"/>
   </g>
   <g id="patch_194">
    <path d="M 436.143636 678.04 
L 453.406909 678.04 
L 453.406909 632.624127 
L 436.143636 632.624127 
z
" clip-path="url(#pfb5ec36366)" style="fill: #1f77b4; stroke: #000000; stroke-width: 0.5; stroke-linejoin: miter"/>
   </g>
   <g id="patch_195">
    <path d="M 453.406909 678.04 
L 470.670182 678.04 
L 470.670182 632.624127 
L 453.406909 632.624127 
z
" clip-path="url(#pfb5ec36366)" style="fill: #1f77b4; stroke: #000000; stroke-width: 0.5; stroke-linejoin: miter"/>
   </g>
   <g id="patch_196">
    <path d="M 470.670182 678.04 
L 487.933455 678.04 
L 487.933455 650.790476 
L 470.670182 650.790476 
z
" clip-path="url(#pfb5ec36366)" style="fill: #1f77b4; stroke: #000000; stroke-width: 0.5; stroke-linejoin: miter"/>
   </g>
   <g id="patch_197">
    <path d="M 487.933455 678.04 
L 505.196727 678.04 
L 505.196727 641.707302 
L 487.933455 641.707302 
z
" clip-path="url(#pfb5ec36366)" style="fill: #1f77b4; stroke: #000000; stroke-width: 0.5; stroke-linejoin: miter"/>
   </g>
   <g id="patch_198">
    <path d="M 505.196727 678.04 
L 522.46 678.04 
L 522.46 623.540952 
L 505.196727 623.540952 
z
" clip-path="url(#pfb5ec36366)" style="fill: #1f77b4; stroke: #000000; stroke-width: 0.5; stroke-linejoin: miter"/>
   </g>
   <g id="patch_199">
    <path d="M 522.46 678.04 
L 539.723273 678.04 
L 539.723273 659.873651 
L 522.46 659.873651 
z
" clip-path="url(#pfb5ec36366)" style="fill: #1f77b4; stroke: #000000; stroke-width: 0.5; stroke-linejoin: miter"/>
   </g>
   <g id="patch_200">
    <path d="M 539.723273 678.04 
L 556.986545 678.04 
L 556.986545 641.707302 
L 539.723273 641.707302 
z
" clip-path="url(#pfb5ec36366)" style="fill: #1f77b4; stroke: #000000; stroke-width: 0.5; stroke-linejoin: miter"/>
   </g>
   <g id="patch_201">
    <path d="M 556.986545 678.04 
L 574.249818 678.04 
L 574.249818 659.873651 
L 556.986545 659.873651 
z
" clip-path="url(#pfb5ec36366)" style="fill: #1f77b4; stroke: #000000; stroke-width: 0.5; stroke-linejoin: miter"/>
   </g>
   <g id="patch_202">
    <path d="M 574.249818 678.04 
L 591.513091 678.04 
L 591.513091 650.790476 
L 574.249818 650.790476 
z
" clip-path="url(#pfb5ec36366)" style="fill: #1f77b4; stroke: #000000; stroke-width: 0.5; stroke-linejoin: miter"/>
   </g>
   <g id="patch_203">
    <path d="M 591.513091 678.04 
L 608.776364 678.04 
L 608.776364 650.790476 
L 591.513091 650.790476 
z
" clip-path="url(#pfb5ec36366)" style="fill: #1f77b4; stroke: #000000; stroke-width: 0.5; stroke-linejoin: miter"/>
   </g>
   <g id="patch_204">
    <path d="M 608.776364 678.04 
L 626.039636 678.04 
L 626.039636 650.790476 
L 608.776364 650.790476 
z
" clip-path="url(#pfb5ec36366)" style="fill: #1f77b4; stroke: #000000; stroke-width: 0.5; stroke-linejoin: miter"/>
   </g>
   <g id="patch_205">
    <path d="M 626.039636 678.04 
L 643.302909 678.04 
L 643.302909 659.873651 
L 626.039636 659.873651 
z
" clip-path="url(#pfb5ec36366)" style="fill: #1f77b4; stroke: #000000; stroke-width: 0.5; stroke-linejoin: miter"/>
   </g>
   <g id="patch_206">
    <path d="M 643.302909 678.04 
L 660.566182 678.04 
L 660.566182 659.873651 
L 643.302909 659.873651 
z
" clip-path="url(#pfb5ec36366)" style="fill: #1f77b4; stroke: #000000; stroke-width: 0.5; stroke-linejoin: miter"/>
   </g>
   <g id="patch_207">
    <path d="M 660.566182 678.04 
L 677.829455 678.04 
L 677.829455 668.956825 
L 660.566182 668.956825 
z
" clip-path="url(#pfb5ec36366)" style="fill: #1f77b4; stroke: #000000; stroke-width: 0.5; stroke-linejoin: miter"/>
   </g>
   <g id="patch_208">
    <path d="M 677.829455 678.04 
L 695.092727 678.04 
L 695.092727 668.956825 
L 677.829455 668.956825 
z
" clip-path="url(#pfb5ec36366)" style="fill: #1f77b4; stroke: #000000; stroke-width: 0.5; stroke-linejoin: miter"/>
   </g>
   <g id="patch_209">
    <path d="M 695.092727 678.04 
L 712.356 678.04 
L 712.356 678.04 
L 695.092727 678.04 
z
" clip-path="url(#pfb5ec36366)" style="fill: #1f77b4; stroke: #000000; stroke-width: 0.5; stroke-linejoin: miter"/>
   </g>
   <g id="patch_210">
    <path d="M 712.356 678.04 
L 729.619273 678.04 
L 729.619273 668.956825 
L 712.356 668.956825 
z
" clip-path="url(#pfb5ec36366)" style="fill: #1f77b4; stroke: #000000; stroke-width: 0.5; stroke-linejoin: miter"/>
   </g>
   <g id="patch_211">
    <path d="M 729.619273 678.04 
L 746.882545 678.04 
L 746.882545 659.873651 
L 729.619273 659.873651 
z
" clip-path="url(#pfb5ec36366)" style="fill: #1f77b4; stroke: #000000; stroke-width: 0.5; stroke-linejoin: miter"/>
   </g>
   <g id="patch_212">
    <path d="M 746.882545 678.04 
L 764.145818 678.04 
L 764.145818 650.790476 
L 746.882545 650.790476 
z
" clip-path="url(#pfb5ec36366)" style="fill: #1f77b4; stroke: #000000; stroke-width: 0.5; stroke-linejoin: miter"/>
   </g>
   <g id="patch_213">
    <path d="M 764.145818 678.04 
L 781.409091 678.04 
L 781.409091 678.04 
L 764.145818 678.04 
z
" clip-path="url(#pfb5ec36366)" style="fill: #1f77b4; stroke: #000000; stroke-width: 0.5; stroke-linejoin: miter"/>
   </g>
   <g id="patch_214">
    <path d="M 781.409091 678.04 
L 798.672364 678.04 
L 798.672364 678.04 
L 781.409091 678.04 
z
" clip-path="url(#pfb5ec36366)" style="fill: #1f77b4; stroke: #000000; stroke-width: 0.5; stroke-linejoin: miter"/>
   </g>
   <g id="patch_215">
    <path d="M 798.672364 678.04 
L 815.935636 678.04 
L 815.935636 668.956825 
L 798.672364 668.956825 
z
" clip-path="url(#pfb5ec36366)" style="fill: #1f77b4; stroke: #000000; stroke-width: 0.5; stroke-linejoin: miter"/>
   </g>
   <g id="patch_216">
    <path d="M 815.935636 678.04 
L 833.198909 678.04 
L 833.198909 678.04 
L 815.935636 678.04 
z
" clip-path="url(#pfb5ec36366)" style="fill: #1f77b4; stroke: #000000; stroke-width: 0.5; stroke-linejoin: miter"/>
   </g>
   <g id="patch_217">
    <path d="M 833.198909 678.04 
L 850.462182 678.04 
L 850.462182 668.956825 
L 833.198909 668.956825 
z
" clip-path="url(#pfb5ec36366)" style="fill: #1f77b4; stroke: #000000; stroke-width: 0.5; stroke-linejoin: miter"/>
   </g>
   <g id="patch_218">
    <path d="M 850.462182 678.04 
L 867.725455 678.04 
L 867.725455 668.956825 
L 850.462182 668.956825 
z
" clip-path="url(#pfb5ec36366)" style="fill: #1f77b4; stroke: #000000; stroke-width: 0.5; stroke-linejoin: miter"/>
   </g>
   <g id="patch_219">
    <path d="M 867.725455 678.04 
L 884.988727 678.04 
L 884.988727 659.873651 
L 867.725455 659.873651 
z
" clip-path="url(#pfb5ec36366)" style="fill: #1f77b4; stroke: #000000; stroke-width: 0.5; stroke-linejoin: miter"/>
   </g>
   <g id="patch_220">
    <path d="M 884.988727 678.04 
L 902.252 678.04 
L 902.252 659.873651 
L 884.988727 659.873651 
z
" clip-path="url(#pfb5ec36366)" style="fill: #1f77b4; stroke: #000000; stroke-width: 0.5; stroke-linejoin: miter"/>
   </g>
   <g id="patch_221">
    <path d="M 902.252 678.04 
L 919.515273 678.04 
L 919.515273 678.04 
L 902.252 678.04 
z
" clip-path="url(#pfb5ec36366)" style="fill: #1f77b4; stroke: #000000; stroke-width: 0.5; stroke-linejoin: miter"/>
   </g>
   <g id="patch_222">
    <path d="M 919.515273 678.04 
L 936.778545 678.04 
L 936.778545 678.04 
L 919.515273 678.04 
z
" clip-path="url(#pfb5ec36366)" style="fill: #1f77b4; stroke: #000000; stroke-width: 0.5; stroke-linejoin: miter"/>
   </g>
   <g id="patch_223">
    <path d="M 936.778545 678.04 
L 954.041818 678.04 
L 954.041818 668.956825 
L 936.778545 668.956825 
z
" clip-path="url(#pfb5ec36366)" style="fill: #1f77b4; stroke: #000000; stroke-width: 0.5; stroke-linejoin: miter"/>
   </g>
   <g id="matplotlib.axis_3">
    <g id="xtick_10">
     <g id="line2d_17">
      <g>
       <use xlink:href="#m1d82bfd4ad" x="90.878182" y="678.04" style="stroke: #000000; stroke-width: 0.8"/>
      </g>
     </g>
     <g id="text_21">
      <!-- 0.0 -->
      <g transform="translate(82.926619 692.638438) scale(0.1 -0.1)">
       <use xlink:href="#DejaVuSans-30"/>
       <use xlink:href="#DejaVuSans-2e" transform="translate(63.623047 0)"/>
       <use xlink:href="#DejaVuSans-30" transform="translate(95.410156 0)"/>
      </g>
     </g>
    </g>
    <g id="xtick_11">
     <g id="line2d_18">
      <g>
       <use xlink:href="#m1d82bfd4ad" x="238.382777" y="678.04" style="stroke: #000000; stroke-width: 0.8"/>
      </g>
     </g>
     <g id="text_22">
      <!-- 0.2 -->
      <g transform="translate(230.431215 692.638438) scale(0.1 -0.1)">
       <use xlink:href="#DejaVuSans-30"/>
       <use xlink:href="#DejaVuSans-2e" transform="translate(63.623047 0)"/>
       <use xlink:href="#DejaVuSans-32" transform="translate(95.410156 0)"/>
      </g>
     </g>
    </g>
    <g id="xtick_12">
     <g id="line2d_19">
      <g>
       <use xlink:href="#m1d82bfd4ad" x="385.887372" y="678.04" style="stroke: #000000; stroke-width: 0.8"/>
      </g>
     </g>
     <g id="text_23">
      <!-- 0.4 -->
      <g transform="translate(377.93581 692.638438) scale(0.1 -0.1)">
       <use xlink:href="#DejaVuSans-30"/>
       <use xlink:href="#DejaVuSans-2e" transform="translate(63.623047 0)"/>
       <use xlink:href="#DejaVuSans-34" transform="translate(95.410156 0)"/>
      </g>
     </g>
    </g>
    <g id="xtick_13">
     <g id="line2d_20">
      <g>
       <use xlink:href="#m1d82bfd4ad" x="533.391968" y="678.04" style="stroke: #000000; stroke-width: 0.8"/>
      </g>
     </g>
     <g id="text_24">
      <!-- 0.6 -->
      <g transform="translate(525.440405 692.638438) scale(0.1 -0.1)">
       <use xlink:href="#DejaVuSans-30"/>
       <use xlink:href="#DejaVuSans-2e" transform="translate(63.623047 0)"/>
       <use xlink:href="#DejaVuSans-36" transform="translate(95.410156 0)"/>
      </g>
     </g>
    </g>
    <g id="xtick_14">
     <g id="line2d_21">
      <g>
       <use xlink:href="#m1d82bfd4ad" x="680.896563" y="678.04" style="stroke: #000000; stroke-width: 0.8"/>
      </g>
     </g>
     <g id="text_25">
      <!-- 0.8 -->
      <g transform="translate(672.945 692.638438) scale(0.1 -0.1)">
       <use xlink:href="#DejaVuSans-30"/>
       <use xlink:href="#DejaVuSans-2e" transform="translate(63.623047 0)"/>
       <use xlink:href="#DejaVuSans-38" transform="translate(95.410156 0)"/>
      </g>
     </g>
    </g>
    <g id="xtick_15">
     <g id="line2d_22">
      <g>
       <use xlink:href="#m1d82bfd4ad" x="828.401158" y="678.04" style="stroke: #000000; stroke-width: 0.8"/>
      </g>
     </g>
     <g id="text_26">
      <!-- 1.0 -->
      <g transform="translate(820.449595 692.638438) scale(0.1 -0.1)">
       <use xlink:href="#DejaVuSans-31"/>
       <use xlink:href="#DejaVuSans-2e" transform="translate(63.623047 0)"/>
       <use xlink:href="#DejaVuSans-30" transform="translate(95.410156 0)"/>
      </g>
     </g>
    </g>
    <g id="xtick_16">
     <g id="line2d_23">
      <g>
       <use xlink:href="#m1d82bfd4ad" x="975.905753" y="678.04" style="stroke: #000000; stroke-width: 0.8"/>
      </g>
     </g>
     <g id="text_27">
      <!-- 1.2 -->
      <g transform="translate(967.954191 692.638438) scale(0.1 -0.1)">
       <use xlink:href="#DejaVuSans-31"/>
       <use xlink:href="#DejaVuSans-2e" transform="translate(63.623047 0)"/>
       <use xlink:href="#DejaVuSans-32" transform="translate(95.410156 0)"/>
      </g>
     </g>
    </g>
    <g id="text_28">
     <!-- Count -->
     <g transform="translate(507.611562 706.316563) scale(0.1 -0.1)">
      <use xlink:href="#DejaVuSans-43"/>
      <use xlink:href="#DejaVuSans-6f" transform="translate(69.824219 0)"/>
      <use xlink:href="#DejaVuSans-75" transform="translate(131.005859 0)"/>
      <use xlink:href="#DejaVuSans-6e" transform="translate(194.384766 0)"/>
      <use xlink:href="#DejaVuSans-74" transform="translate(257.763672 0)"/>
     </g>
    </g>
    <g id="text_29">
     <!-- 1e8 -->
     <g transform="translate(978.321875 705.316563) scale(0.1 -0.1)">
      <use xlink:href="#DejaVuSans-31"/>
      <use xlink:href="#DejaVuSans-65" transform="translate(63.623047 0)"/>
      <use xlink:href="#DejaVuSans-38" transform="translate(125.146484 0)"/>
     </g>
    </g>
   </g>
   <g id="matplotlib.axis_4">
    <g id="ytick_8">
     <g id="line2d_24">
      <g>
       <use xlink:href="#m0ff141b61a" x="47.72" y="678.04" style="stroke: #000000; stroke-width: 0.8"/>
      </g>
     </g>
     <g id="text_30">
      <!-- 0 -->
      <g transform="translate(34.3575 681.839219) scale(0.1 -0.1)">
       <use xlink:href="#DejaVuSans-30"/>
      </g>
     </g>
    </g>
    <g id="ytick_9">
     <g id="line2d_25">
      <g>
       <use xlink:href="#m0ff141b61a" x="47.72" y="632.624127" style="stroke: #000000; stroke-width: 0.8"/>
      </g>
     </g>
     <g id="text_31">
      <!-- 5 -->
      <g transform="translate(34.3575 636.423346) scale(0.1 -0.1)">
       <defs>
        <path id="DejaVuSans-35" d="M 691 4666 
L 3169 4666 
L 3169 4134 
L 1269 4134 
L 1269 2991 
Q 1406 3038 1543 3061 
Q 1681 3084 1819 3084 
Q 2600 3084 3056 2656 
Q 3513 2228 3513 1497 
Q 3513 744 3044 326 
Q 2575 -91 1722 -91 
Q 1428 -91 1123 -41 
Q 819 9 494 109 
L 494 744 
Q 775 591 1075 516 
Q 1375 441 1709 441 
Q 2250 441 2565 725 
Q 2881 1009 2881 1497 
Q 2881 1984 2565 2268 
Q 2250 2553 1709 2553 
Q 1456 2553 1204 2497 
Q 953 2441 691 2322 
L 691 4666 
z
" transform="scale(0.015625)"/>
       </defs>
       <use xlink:href="#DejaVuSans-35"/>
      </g>
     </g>
    </g>
    <g id="ytick_10">
     <g id="line2d_26">
      <g>
       <use xlink:href="#m0ff141b61a" x="47.72" y="587.208254" style="stroke: #000000; stroke-width: 0.8"/>
      </g>
     </g>
     <g id="text_32">
      <!-- 10 -->
      <g transform="translate(27.995 591.007473) scale(0.1 -0.1)">
       <use xlink:href="#DejaVuSans-31"/>
       <use xlink:href="#DejaVuSans-30" transform="translate(63.623047 0)"/>
      </g>
     </g>
    </g>
    <g id="ytick_11">
     <g id="line2d_27">
      <g>
       <use xlink:href="#m0ff141b61a" x="47.72" y="541.792381" style="stroke: #000000; stroke-width: 0.8"/>
      </g>
     </g>
     <g id="text_33">
      <!-- 15 -->
      <g transform="translate(27.995 545.5916) scale(0.1 -0.1)">
       <use xlink:href="#DejaVuSans-31"/>
       <use xlink:href="#DejaVuSans-35" transform="translate(63.623047 0)"/>
      </g>
     </g>
    </g>
    <g id="ytick_12">
     <g id="line2d_28">
      <g>
       <use xlink:href="#m0ff141b61a" x="47.72" y="496.376508" style="stroke: #000000; stroke-width: 0.8"/>
      </g>
     </g>
     <g id="text_34">
      <!-- 20 -->
      <g transform="translate(27.995 500.175727) scale(0.1 -0.1)">
       <use xlink:href="#DejaVuSans-32"/>
       <use xlink:href="#DejaVuSans-30" transform="translate(63.623047 0)"/>
      </g>
     </g>
    </g>
    <g id="ytick_13">
     <g id="line2d_29">
      <g>
       <use xlink:href="#m0ff141b61a" x="47.72" y="450.960635" style="stroke: #000000; stroke-width: 0.8"/>
      </g>
     </g>
     <g id="text_35">
      <!-- 25 -->
      <g transform="translate(27.995 454.759854) scale(0.1 -0.1)">
       <use xlink:href="#DejaVuSans-32"/>
       <use xlink:href="#DejaVuSans-35" transform="translate(63.623047 0)"/>
      </g>
     </g>
    </g>
    <g id="ytick_14">
     <g id="line2d_30">
      <g>
       <use xlink:href="#m0ff141b61a" x="47.72" y="405.544762" style="stroke: #000000; stroke-width: 0.8"/>
      </g>
     </g>
     <g id="text_36">
      <!-- 30 -->
      <g transform="translate(27.995 409.343981) scale(0.1 -0.1)">
       <defs>
        <path id="DejaVuSans-33" d="M 2597 2516 
Q 3050 2419 3304 2112 
Q 3559 1806 3559 1356 
Q 3559 666 3084 287 
Q 2609 -91 1734 -91 
Q 1441 -91 1130 -33 
Q 819 25 488 141 
L 488 750 
Q 750 597 1062 519 
Q 1375 441 1716 441 
Q 2309 441 2620 675 
Q 2931 909 2931 1356 
Q 2931 1769 2642 2001 
Q 2353 2234 1838 2234 
L 1294 2234 
L 1294 2753 
L 1863 2753 
Q 2328 2753 2575 2939 
Q 2822 3125 2822 3475 
Q 2822 3834 2567 4026 
Q 2313 4219 1838 4219 
Q 1578 4219 1281 4162 
Q 984 4106 628 3988 
L 628 4550 
Q 988 4650 1302 4700 
Q 1616 4750 1894 4750 
Q 2613 4750 3031 4423 
Q 3450 4097 3450 3541 
Q 3450 3153 3228 2886 
Q 3006 2619 2597 2516 
z
" transform="scale(0.015625)"/>
       </defs>
       <use xlink:href="#DejaVuSans-33"/>
       <use xlink:href="#DejaVuSans-30" transform="translate(63.623047 0)"/>
      </g>
     </g>
    </g>
    <g id="text_37">
     <!-- Number of bit positions -->
     <g transform="translate(21.915312 593.585469) rotate(-90) scale(0.1 -0.1)">
      <defs>
       <path id="DejaVuSans-4e" d="M 628 4666 
L 1478 4666 
L 3547 763 
L 3547 4666 
L 4159 4666 
L 4159 0 
L 3309 0 
L 1241 3903 
L 1241 0 
L 628 0 
L 628 4666 
z
" transform="scale(0.015625)"/>
       <path id="DejaVuSans-6d" d="M 3328 2828 
Q 3544 3216 3844 3400 
Q 4144 3584 4550 3584 
Q 5097 3584 5394 3201 
Q 5691 2819 5691 2113 
L 5691 0 
L 5113 0 
L 5113 2094 
Q 5113 2597 4934 2840 
Q 4756 3084 4391 3084 
Q 3944 3084 3684 2787 
Q 3425 2491 3425 1978 
L 3425 0 
L 2847 0 
L 2847 2094 
Q 2847 2600 2669 2842 
Q 2491 3084 2119 3084 
Q 1678 3084 1418 2786 
Q 1159 2488 1159 1978 
L 1159 0 
L 581 0 
L 581 3500 
L 1159 3500 
L 1159 2956 
Q 1356 3278 1631 3431 
Q 1906 3584 2284 3584 
Q 2666 3584 2933 3390 
Q 3200 3197 3328 2828 
z
" transform="scale(0.015625)"/>
       <path id="DejaVuSans-66" d="M 2375 4863 
L 2375 4384 
L 1825 4384 
Q 1516 4384 1395 4259 
Q 1275 4134 1275 3809 
L 1275 3500 
L 2222 3500 
L 2222 3053 
L 1275 3053 
L 1275 0 
L 697 0 
L 697 3053 
L 147 3053 
L 147 3500 
L 697 3500 
L 697 3744 
Q 697 4328 969 4595 
Q 1241 4863 1831 4863 
L 2375 4863 
z
" transform="scale(0.015625)"/>
      </defs>
      <use xlink:href="#DejaVuSans-4e"/>
      <use xlink:href="#DejaVuSans-75" transform="translate(74.804688 0)"/>
      <use xlink:href="#DejaVuSans-6d" transform="translate(138.183594 0)"/>
      <use xlink:href="#DejaVuSans-62" transform="translate(235.595703 0)"/>
      <use xlink:href="#DejaVuSans-65" transform="translate(299.072266 0)"/>
      <use xlink:href="#DejaVuSans-72" transform="translate(360.595703 0)"/>
      <use xlink:href="#DejaVuSans-20" transform="translate(401.708984 0)"/>
      <use xlink:href="#DejaVuSans-6f" transform="translate(433.496094 0)"/>
      <use xlink:href="#DejaVuSans-66" transform="translate(494.677734 0)"/>
      <use xlink:href="#DejaVuSans-20" transform="translate(529.882812 0)"/>
      <use xlink:href="#DejaVuSans-62" transform="translate(561.669922 0)"/>
      <use xlink:href="#DejaVuSans-69" transform="translate(625.146484 0)"/>
      <use xlink:href="#DejaVuSans-74" transform="translate(652.929688 0)"/>
      <use xlink:href="#DejaVuSans-20" transform="translate(692.138672 0)"/>
      <use xlink:href="#DejaVuSans-70" transform="translate(723.925781 0)"/>
      <use xlink:href="#DejaVuSans-6f" transform="translate(787.402344 0)"/>
      <use xlink:href="#DejaVuSans-73" transform="translate(848.583984 0)"/>
      <use xlink:href="#DejaVuSans-69" transform="translate(900.683594 0)"/>
      <use xlink:href="#DejaVuSans-74" transform="translate(928.466797 0)"/>
      <use xlink:href="#DejaVuSans-69" transform="translate(967.675781 0)"/>
      <use xlink:href="#DejaVuSans-6f" transform="translate(995.458984 0)"/>
      <use xlink:href="#DejaVuSans-6e" transform="translate(1056.640625 0)"/>
      <use xlink:href="#DejaVuSans-73" transform="translate(1120.019531 0)"/>
     </g>
    </g>
   </g>
   <g id="patch_224">
    <path d="M 47.72 678.04 
L 47.72 391.92 
" style="fill: none; stroke: #000000; stroke-width: 0.8; stroke-linejoin: miter; stroke-linecap: square"/>
   </g>
   <g id="patch_225">
    <path d="M 997.2 678.04 
L 997.2 391.92 
" style="fill: none; stroke: #000000; stroke-width: 0.8; stroke-linejoin: miter; stroke-linecap: square"/>
   </g>
   <g id="patch_226">
    <path d="M 47.72 678.04 
L 997.2 678.04 
" style="fill: none; stroke: #000000; stroke-width: 0.8; stroke-linejoin: miter; stroke-linecap: square"/>
   </g>
   <g id="patch_227">
    <path d="M 47.72 391.92 
L 997.2 391.92 
" style="fill: none; stroke: #000000; stroke-width: 0.8; stroke-linejoin: miter; stroke-linecap: square"/>
   </g>
   <g id="text_38">
    <!-- MACCS_166: distribution of bit counts -->
    <g transform="translate(409.137812 385.92) scale(0.12 -0.12)">
     <defs>
      <path id="DejaVuSans-64" d="M 2906 2969 
L 2906 4863 
L 3481 4863 
L 3481 0 
L 2906 0 
L 2906 525 
Q 2725 213 2448 61 
Q 2172 -91 1784 -91 
Q 1150 -91 751 415 
Q 353 922 353 1747 
Q 353 2572 751 3078 
Q 1150 3584 1784 3584 
Q 2172 3584 2448 3432 
Q 2725 3281 2906 2969 
z
M 947 1747 
Q 947 1113 1208 752 
Q 1469 391 1925 391 
Q 2381 391 2643 752 
Q 2906 1113 2906 1747 
Q 2906 2381 2643 2742 
Q 2381 3103 1925 3103 
Q 1469 3103 1208 2742 
Q 947 2381 947 1747 
z
" transform="scale(0.015625)"/>
     </defs>
     <use xlink:href="#DejaVuSans-4d"/>
     <use xlink:href="#DejaVuSans-41" transform="translate(86.279297 0)"/>
     <use xlink:href="#DejaVuSans-43" transform="translate(152.9375 0)"/>
     <use xlink:href="#DejaVuSans-43" transform="translate(222.761719 0)"/>
     <use xlink:href="#DejaVuSans-53" transform="translate(292.585938 0)"/>
     <use xlink:href="#DejaVuSans-5f" transform="translate(356.0625 0)"/>
     <use xlink:href="#DejaVuSans-31" transform="translate(406.0625 0)"/>
     <use xlink:href="#DejaVuSans-36" transform="translate(469.685547 0)"/>
     <use xlink:href="#DejaVuSans-36" transform="translate(533.308594 0)"/>
     <use xlink:href="#DejaVuSans-3a" transform="translate(596.931641 0)"/>
     <use xlink:href="#DejaVuSans-20" transform="translate(630.623047 0)"/>
     <use xlink:href="#DejaVuSans-64" transform="translate(662.410156 0)"/>
     <use xlink:href="#DejaVuSans-69" transform="translate(725.886719 0)"/>
     <use xlink:href="#DejaVuSans-73" transform="translate(753.669922 0)"/>
     <use xlink:href="#DejaVuSans-74" transform="translate(805.769531 0)"/>
     <use xlink:href="#DejaVuSans-72" transform="translate(844.978516 0)"/>
     <use xlink:href="#DejaVuSans-69" transform="translate(886.091797 0)"/>
     <use xlink:href="#DejaVuSans-62" transform="translate(913.875 0)"/>
     <use xlink:href="#DejaVuSans-75" transform="translate(977.351562 0)"/>
     <use xlink:href="#DejaVuSans-74" transform="translate(1040.730469 0)"/>
     <use xlink:href="#DejaVuSans-69" transform="translate(1079.939453 0)"/>
     <use xlink:href="#DejaVuSans-6f" transform="translate(1107.722656 0)"/>
     <use xlink:href="#DejaVuSans-6e" transform="translate(1168.904297 0)"/>
     <use xlink:href="#DejaVuSans-20" transform="translate(1232.283203 0)"/>
     <use xlink:href="#DejaVuSans-6f" transform="translate(1264.070312 0)"/>
     <use xlink:href="#DejaVuSans-66" transform="translate(1325.251953 0)"/>
     <use xlink:href="#DejaVuSans-20" transform="translate(1360.457031 0)"/>
     <use xlink:href="#DejaVuSans-62" transform="translate(1392.244141 0)"/>
     <use xlink:href="#DejaVuSans-69" transform="translate(1455.720703 0)"/>
     <use xlink:href="#DejaVuSans-74" transform="translate(1483.503906 0)"/>
     <use xlink:href="#DejaVuSans-20" transform="translate(1522.712891 0)"/>
     <use xlink:href="#DejaVuSans-63" transform="translate(1554.5 0)"/>
     <use xlink:href="#DejaVuSans-6f" transform="translate(1609.480469 0)"/>
     <use xlink:href="#DejaVuSans-75" transform="translate(1670.662109 0)"/>
     <use xlink:href="#DejaVuSans-6e" transform="translate(1734.041016 0)"/>
     <use xlink:href="#DejaVuSans-74" transform="translate(1797.419922 0)"/>
     <use xlink:href="#DejaVuSans-73" transform="translate(1836.628906 0)"/>
    </g>
   </g>
  </g>
  <g id="text_39">
   <!-- Total molecules: 123,007,215 -->
   <g transform="translate(430.267969 21.998438) scale(0.1 -0.1)">
    <defs>
     <path id="DejaVuSans-54" d="M -19 4666 
L 3928 4666 
L 3928 4134 
L 2272 4134 
L 2272 0 
L 1638 0 
L 1638 4134 
L -19 4134 
L -19 4666 
z
" transform="scale(0.015625)"/>
     <path id="DejaVuSans-61" d="M 2194 1759 
Q 1497 1759 1228 1600 
Q 959 1441 959 1056 
Q 959 750 1161 570 
Q 1363 391 1709 391 
Q 2188 391 2477 730 
Q 2766 1069 2766 1631 
L 2766 1759 
L 2194 1759 
z
M 3341 1997 
L 3341 0 
L 2766 0 
L 2766 531 
Q 2569 213 2275 61 
Q 1981 -91 1556 -91 
Q 1019 -91 701 211 
Q 384 513 384 1019 
Q 384 1609 779 1909 
Q 1175 2209 1959 2209 
L 2766 2209 
L 2766 2266 
Q 2766 2663 2505 2880 
Q 2244 3097 1772 3097 
Q 1472 3097 1187 3025 
Q 903 2953 641 2809 
L 641 3341 
Q 956 3463 1253 3523 
Q 1550 3584 1831 3584 
Q 2591 3584 2966 3190 
Q 3341 2797 3341 1997 
z
" transform="scale(0.015625)"/>
     <path id="DejaVuSans-6c" d="M 603 4863 
L 1178 4863 
L 1178 0 
L 603 0 
L 603 4863 
z
" transform="scale(0.015625)"/>
     <path id="DejaVuSans-2c" d="M 750 794 
L 1409 794 
L 1409 256 
L 897 -744 
L 494 -744 
L 750 256 
L 750 794 
z
" transform="scale(0.015625)"/>
     <path id="DejaVuSans-37" d="M 525 4666 
L 3525 4666 
L 3525 4397 
L 1831 0 
L 1172 0 
L 2766 4134 
L 525 4134 
L 525 4666 
z
" transform="scale(0.015625)"/>
    </defs>
    <use xlink:href="#DejaVuSans-54"/>
    <use xlink:href="#DejaVuSans-6f" transform="translate(44.083984 0)"/>
    <use xlink:href="#DejaVuSans-74" transform="translate(105.265625 0)"/>
    <use xlink:href="#DejaVuSans-61" transform="translate(144.474609 0)"/>
    <use xlink:href="#DejaVuSans-6c" transform="translate(205.753906 0)"/>
    <use xlink:href="#DejaVuSans-20" transform="translate(233.537109 0)"/>
    <use xlink:href="#DejaVuSans-6d" transform="translate(265.324219 0)"/>
    <use xlink:href="#DejaVuSans-6f" transform="translate(362.736328 0)"/>
    <use xlink:href="#DejaVuSans-6c" transform="translate(423.917969 0)"/>
    <use xlink:href="#DejaVuSans-65" transform="translate(451.701172 0)"/>
    <use xlink:href="#DejaVuSans-63" transform="translate(513.224609 0)"/>
    <use xlink:href="#DejaVuSans-75" transform="translate(568.205078 0)"/>
    <use xlink:href="#DejaVuSans-6c" transform="translate(631.583984 0)"/>
    <use xlink:href="#DejaVuSans-65" transform="translate(659.367188 0)"/>
    <use xlink:href="#DejaVuSans-73" transform="translate(720.890625 0)"/>
    <use xlink:href="#DejaVuSans-3a" transform="translate(772.990234 0)"/>
    <use xlink:href="#DejaVuSans-20" transform="translate(806.681641 0)"/>
    <use xlink:href="#DejaVuSans-31" transform="translate(838.46875 0)"/>
    <use xlink:href="#DejaVuSans-32" transform="translate(902.091797 0)"/>
    <use xlink:href="#DejaVuSans-33" transform="translate(965.714844 0)"/>
    <use xlink:href="#DejaVuSans-2c" transform="translate(1029.337891 0)"/>
    <use xlink:href="#DejaVuSans-30" transform="translate(1061.125 0)"/>
    <use xlink:href="#DejaVuSans-30" transform="translate(1124.748047 0)"/>
    <use xlink:href="#DejaVuSans-37" transform="translate(1188.371094 0)"/>
    <use xlink:href="#DejaVuSans-2c" transform="translate(1251.994141 0)"/>
    <use xlink:href="#DejaVuSans-32" transform="translate(1283.78125 0)"/>
    <use xlink:href="#DejaVuSans-31" transform="translate(1347.404297 0)"/>
    <use xlink:href="#DejaVuSans-35" transform="translate(1411.027344 0)"/>
   </g>
  </g>
 </g>
 <defs>
  <clipPath id="pda0bfce13a">
   <rect x="47.72" y="47.76" width="949.48" height="286.12"/>
  </clipPath>
  <clipPath id="pfb5ec36366">
   <rect x="47.72" y="391.92" width="949.48" height="286.12"/>
  </clipPath>
 </defs>
</svg>
